<mxfile host="app.diagrams.net" agent="Mozilla/5.0 (Windows NT 10.0; Win64; x64) AppleWebKit/537.36 (KHTML, like Gecko) Chrome/131.0.0.0 Safari/537.36" version="25.0.3">
  <diagram id="Nqzpft7b6VbOnFqQJQ07" name="Page-1">
    <mxGraphModel dx="1050" dy="1718" grid="1" gridSize="10" guides="1" tooltips="1" connect="1" arrows="1" fold="1" page="1" pageScale="1" pageWidth="850" pageHeight="1100" math="0" shadow="0">
      <root>
        <mxCell id="0" />
        <mxCell id="1" parent="0" />
        <mxCell id="WDt8Z69bVPwjooa2CbTY-1" value="" style="shape=image;verticalLabelPosition=bottom;labelBackgroundColor=default;verticalAlign=top;aspect=fixed;imageAspect=0;image=data:image/png,iVBORw0KGgoAAAANSUhEUgAAAOEAAADhCAMAAAAJbSJIAAAAkFBMVEX///8/hiQrfgA8hSAufwA5gxs3ghcnfAAzgRA1ghQxgAoofQA9hSA4gxj4+/fm7uO2za/z9/LK28WJsH3i69/W49LR4MyYuo71+fTs8uqkwZvc59lblUirxqPD1r12pWhlm1TF18BIiy9PjziStodVkkB5pmtonFeyy6pel0t/qnKdvZO6z7Rmm1V2pGhwoWCs/TikAAAQ6klEQVR4nO1da7eqOAw9lEJ5Koqo+FbA9z38/383oKaggrZatLPW2V9m7p0BCW2T7HQ3/Pz84Q9/+MMf/h9oDTth2G73Tmi322HYaX37md5Fa9gOusdR7KfJyrVwBpTDtk//QNmfLUNJFnM/PmyX/fb/yd523xutdyszsyUzwnQ11VFq4DiapptGZr+NnGTjj7yg/e3Hf4RO/xjPFWJjy3TrraqFo+mZrTYxF/62G37bmBt0+tP9REHIMjV+y+6QWYptZxd7Yymmbqc7WjsEG6+M2mM7TQuRyP+umeEsjjA2NLGmlaHqlu3uDt1vWNn29gqxdLU56wozTUwmg49a2er6CrJcrmnpqKqqAVQ1+yOvlXgx/YyjHR5/Law/t85RNdPInCOyCbFNdRUlu8UmTX9/0/TfbpJEKxWT7L/kEcUwH0SUAppBkkG/YfM6241tPV53qmtmPh+50W4ej6bHbtALa+dXK+xlWcF0FM8nWfxE2Hjmi1UTWX7QnH2zFD8yT828PCHRfuAtx/w5WSsMltv4d0XIk6Cj26tBI9N17CNcZ57jZra5O3/bF/DTYeDFG8V+4KMdkySeaMfjJbZe/XOagdFqP+oLzkLC7ih1Ua2ZqmXGAgcyPGCryvU5ukXcdNQfivupmx/OzFSJ5VYaaZJU0IrsxNioHDuk+F5PzG88QhZ5VVQ5lpq9E+BaWwNkViwEjNPtB6wDjKcpxua9+9HI4t1x3Fp34+eYthJ3hTw4F/qxYt+/bM1O31mPQYLvzCOrQYMB6cnzxO69w3Ptw8s39MmNf9GQEo8FPvELCHz3LmhZ0WsLpre6nqCqQeZfmJz3WM6Jcb0kVTR94T4eubqLhlbTxqICL4ajFbqeXijlvklMrtfzQorhKzCb2FeT1Yw6fDfwUdk+kn559VWhP7HL46gpXFmVX/Khqr2R0L4c3QSVVpK24lhFI7vsqCSbn2UctZI3dBPm64JiDWr4FS/1QcSlqWr5rFcVFQZrIlvh8g6BUiQ6hDFNPdCRt5lfyjeRWtRlsM3TFr2ASD5DAXvqF20mn+GBhchr+tFEwYdZpzEF/vQSSc3/xRQ9IwHPYbAUN+B9uI0/lziMIUGxGUJ36zKpzUHzDyYOySX0W7Pn/28HLIybfy5x8C+1HIPBOfYuA66umn8ucZhr7DOPTmkkcbZ2izbEC5aZF4KFjsvJR76ICHypxRLhaMDXImko7xNsaOKGWSYefR+KZkpKm64RRkVmarMU3tYFd3bsUePP9zaO5cqUxTLtBuWiJE4kH8b2osRlGQMAzUvP19hriQlU6KOrao22YLmqf1MFdon/wfo9D0L/tj6sM+XSbaLcQLdTCWNjML/fUWFJaYrE9Gr00Wok1WQNR5FdsR2Fl0xXR5V7hYa98yRJAYbHBTEqtRyIzS9uavdd0cb7+kh2vA2qVRMQthzFh+Wr3b0nzSLR4WtbT1nSPErIvXmFrsFiu830woG19Q7dzwXVRG76ib3fW4y3c8eumJyOnU4uJqo7tlvNLq7G3f8sowob86G0cTrtf2xZdoJpiuzKnW4VRV3qObInZgLwJzXK/jCLUPWk1wyEI99rfMqOPT+yqvfx8x2jJCf14P0Nxr3SDgRE+/TH7obcby5f3oGeKyTX02UTCp5hezb9jQiqlQc6BpmfXnAbEjfryHhvYIjkMg3b8f2+a8lMzcC2ufodHEVpanpdL04VIxcN1ev7XKQcLr9HszDEOqOgrFOKLt15hQ+7eqGaaWGCVv/mg+kx6L2wRFvtXnc7XacrO9dRPxa4aRjtiwp+UeFlfcX7S1nnqnDV8ja4RrtzZahmGhZC2TNGv36cWbtcdoP2cNgatnKc7pRjmP1VOO53l0tv4Ptp5BoYZZYZ7nMdtYuN9VVJjbIhlVUKBlfcZnmd454gk1UY6mj6WYd/FmCehftqLl7M/zL/u/wvcfYudP3BbLyGls3d/fLGEGC0J9fIhONl1Ksy9eAwsTGzlUKRRWK8GFXkZRAstDmrhbBytU3lf+4s4yjX1AmWrj80LotNaHfoV89CWDvsRezw4n0fjPqwP00VgoWcPngMJ3PVJJpPg9o1FoIrtbasFrbgpViPV264PKQKzgJWM2p9NT+QgJX16EnyRCu8mF3HBxObMETyMPD81CW5hFnUkYtcIY6zVOL34I0Zwg64DbZC2xnAnzheyrh7iHcrw0aWpTN4/Co4mmtaWaRxo3Qw7bJXwEawW2YzX/ITX8IFcxYEGIbB0fPXqWJnkSAbVsM0dU3Lzx7c2ZwfT1BPB7sugn4r+d0PvNm4Xvheg/2F7TkcOy3An97ZYWuPg+V2dDj46WKS5IcPzDwK5qfz8CmwK1GSTHapfxiNtt2AZTbWAWYc2wbwGd2CPwlDlsZ0AFk+I1CIrlzmB1uh7Yze83AhEYAKGczBInvfcBFjVeCrgOFQMMP+LwWksvjrhafnoNzJ5imt7C4BkbE691VsIVhYPN6qkj9JCsqdHJ6rIIiyVcm/C9D/sBbaznjEn2QDpJh8zxpcktka/iQTWpD2G1y7uSBXcOQPiFRZwecz6ItBTT2YMARUHcNXuuXhT98F5U6EL7VN+fnTl3B4UWkIQYZJgcOMvh85TuQL3VCG0M0XLIpEQaRCcZyQvECv6nYicLdjAdxpzXcdLbdxXvcA22JbWiUcNOAJYJKanCfYxPOn45UAQpiJBQ3iXU9woSil8K3CgwjaYx0Dd+IMFgVxFsWf5jdbHjwlh0fo0n0n3rgGxQ9B/Cm0lRsIirRQUlIw75UgVxDEn7bWrYWCaAuUBR2F98qpWP5U6DtWl38RRFteKbSdMRPLn9ZAqcew/epEQoIipJf8wnvYDBDkEaBqq05KQXHHptF6hGKLhTv8wIYOTyH5AQ50m7bsT1HEW1S/e0xaaONPBeHlcGwGPEBw50vP9uLVe6H/tULbGTDBOTZ0HkGp2axxLOvwRkWfcifMX0Rfi+VPHqq2MIOB/ZfTCpj9rywmyp8EZZC7mv42OXQyfzGxAO6k/eO/FkQqvDl7HVqlMwOKdrtr7Nr/XmKNyQu7MgDKn5gFDs8wJxCdyXpNbqU5Glpt+dcSzP1XEhMgAw77GfBn6C8wtiyM8745vfVdKxbVMgecC5JK8Lh2ZQDgh7mK5c+eqOt5XVDL+fftZkyy58p0imNor5AxCBfN7T91Bvf9fVw74aCyMxoOX3nIVCx/qsRwZN312FKxe2B9XsqdFO0Fly+YP9XBu23EkvsNsmZ7rX4RgjB/Ji+YP9VjlpA7yZFLJiyTtXysQCU+py+GOf6B/acgvW//pFroec+566MhJud0631y/6nnk/umcKa9eZwGtG4rB2TOM4xwqNsRGS4e/NzBxffnO5Dy6DRSxREtkyeNhpdK3n56RngV5wIcA9UfK7s9Zpf//4SD7Cdi+RMLuou7bO40kIPqgO7d1bcyWAkzG4O8/aP7T+N9RZdGx7QXVU6kEHiXx579+PJBMH9iRDgyK84+aNi9bz5LBd6Lf2X66RBGn3oUzJ/YcdxVdUs17Wh6PQFpoe3wszXLVxC2+o94/sSOPHpUnCqz8Lxcn4NlmM+y4brsWAlTGS8Uz5840JpWnhLVsE3PkoTX8ueZUfJSLG1cflpUbPSlxu/9tPKoqIsc/2RS0ZXm7O07myJ6qCbLL0C4QF87Hds+rKoG0tGREQe0Ll9E7FExU00Wbewn+NNT9FNkVFUiTbRaXEagtCvTLfIiwvDUsK/zUolAHMKDgqoOXDlgeHnnoUf5psvgIEGuwKenagL9dXU36jP0cqLWpv3+7efuo/s5/vQUw+2u5oR6htV6W0zJonbzPBcDuQJbt4nGkXcZqDnNmh/Z3cXTZdDudMbgIBm0C1TnwOR5P4HxwLArml6fkLf1z89t0KIIy2kRCC8f408MCOJV3UjegEWdsfs8f2JBEJssBz1ZtAtQypJPvxcckttW3LewWARrIPf+MH9iQ2f30ERNYck1Z1/jTyyghTanwvcYK6aqMpV7f4E/PQclBjsFYUMvHwk0bcZqTQf0e5Nmn/Ul0MOxWdoc9rd+qpDTkUCMiMH8mZYWzAO10Wd9DcFt64fM6N44WC65vk5Hy22SdBcqg4oU3jp+RvnTF7vu1AEc/XtLaCAHf6oEFDvdt2TMICn8Pn+6Bwi83wtlfYn40y24GnrWQjL+VAYlPgw08BHgNpqg5xKHQuD9ns4A8oQXZGMNgwq8zfcejYYLufjTT7EJ/648VF7+BIXAdyW+8KbEnn8SARApvNt3nPIn6Tq0A3d6VyoCHks6/kQF3i/In68AcgXp+BPdd3pB/nyNy32k+1JCn9Z9341jIFHlPIPaOIA7vX+WAI6CyMafQGTwvp4J7sTYofdjAO70PifwJOVPE0HBoqiGyMafaI+2t7k5SMck409Dyp3e35+G/hHc5/saRdGF7n2NNs2OpPrYxZLO0vfvJSd/otxJgNaH8iepWuvHl6cS0W9tKyV/+iek0HbGUsovXIF34O57WAFabhPXP+J9tECD+mah7YTOJalh/LbgZ0A7eBMRB3po5VXAvUSBCrxdETVAyABl4k+UOwmZWHsJ+dNAUKHtDCr3lmj/CVirGAd/lJA/0WAhRCQiI3+iR0eFFKpD+fhTSL9PISZZFlbzEQbKnQQJ7qDcJg9/ogJvQTVO4E/y6Pfot34EHRykcm9p+BMwOlHOD+QK8vAnECmIOsDblY4/raARmaAibhv0e7LwJ/rtO6ajPwwYwnFZWfhT0cFblHeHrTpZ2rV2xXZ4+ink3rLwJ3B9vA096wHOWZb+5RC+xH3YgMq9JeFP8BFucWxnJhl/gmAhotB2hmz8qSR/FoSOXPo9KlIQUmg7AeTekvCnooO3uHtCuY3pq9eNQ2yh7Yy5VPwJXLvIr+AcpOJPe6GFtjPk4k/AnUQ+TV8q/kSbOAtUhLZl2n9qAbN4qYNZHS7VOym+/0QF3kJ2ZQDAn2Q4LgtLRuzrhsVNJBC0U0XbQuRdwUGzfjS5QVDZpchwWGo4bn/7vGyXNhMS2ymvaBpvf5dfDIqOy4I/ELOmPYoM53s6zJlbdMkS9ekBQFg0fnHs3XcOX3QTVDrqK+rzERReqQuTRibC2DUrWtvrHpm2+H6Vg3LPcbWqt1iD6O6N6+4tWKgjvSC+blKo26vBZ2pvQezeduBpyN9Nb/o0OCZy/G6zOcBw6SvorqUyaaokNlZuG/45OsaLus9lv/97owXC+l3DBMNp0NPFFZ23NAOjJJ6J7accLg8bCxlVDdtIsxG5t7jviJvPGxMTJT144/cLOcPAG2xOHzWv+J3Mvl3ji7+fkuoO+U7+oXBipLHXb79i6HC8nPoLiyCr9ovtLll8JBSPffSg8VZmJ7at1ST1R9v+uP10iYbjvjeK57sVtvP2HbX3VVSD7D+2cdLaJqSuXdNlQFVNv3xvGzvRLt3v/Tg+jE44DOLY9/19uotUTAjClmFqT77L7pgkmX5262s8UCodQeXbVzVX103TNE7I/sXUdd3V1OedkC6jh1Y1XWgbNnK0sK17Zy4Wjm6Ryegb5p0xnPkrZOmMY8ELVbfQaj/7+r5sOPMTItrM3DgyER1l38HY8xMtd4Zv2+m4Brbdie9JsuFcRivsTv0JysYz8/rclp6cb3axsj8sexIUvB6gMz5O/U2iIvsUB3St3lrH0TTdzIMKUpONP52Nv77meNBq95feaODPd5Fj4Qwoh23bp3+i/IMsTrRY+4ftMmi35B41FrQ6Ydhu905ot9thGEqxF/mHP/zhD39gw39nu/8+vX+8wAAAAABJRU5ErkJggg==;" parent="1" vertex="1">
          <mxGeometry x="920.63" y="-110" width="75" height="75" as="geometry" />
        </mxCell>
        <mxCell id="WDt8Z69bVPwjooa2CbTY-2" value="AWS S3 Source folder&lt;br&gt;with Validation&lt;br&gt;and Predict image" style="rounded=0;whiteSpace=wrap;html=1;" parent="1" vertex="1">
          <mxGeometry x="900.63" y="-30" width="150" height="50" as="geometry" />
        </mxCell>
        <mxCell id="WDt8Z69bVPwjooa2CbTY-3" value="" style="shape=image;verticalLabelPosition=bottom;labelBackgroundColor=default;verticalAlign=top;aspect=fixed;imageAspect=0;image=data:image/png,iVBORw0KGgoAAAANSUhEUgAAAWgAAAFoBAMAAACIy3zmAAAAG1BMVEU3dqr/zz7/2Eg2b5/v7+////+Mrcny46PE0+DUwACtAAAgAElEQVR42tRcTW8cNxIlULaQaxMOfG4hQa4F0BF8dDYar45CMFJ0FKBY8DWAczegyPDP3ibrg8Wenhmy7emZbTujyB3Ez8+PVa+KRbobetaX9HzDt+nfr75+eXw8c/ycnT0+Pn79Gl+tv99vdOm+0/9rdbMe4DqHgC44fSCE4adzjx//PTXQq5vLAXBCN/0Mr4J7/PekQF8NiN2+ZwB+9nF1KqCv7vcjFtj48fLmBEDXQk7/FQ6wHwn2EUGv74eFV/mgwP64Wh8T9PtawEz08AkA4ex5fTTQ68+u5Ym4ASL0gH/dHAn03T02Yo5MDyrBgeyPRwG9urtvQCx/vEEcEfqg7B+OAboJc+QZI16kf41c/7A86EZtuMw0RIGgcL0k6HUrz5HftAyjspNGIPy1LOjV51aK498LJoqRqR64/jAXNH9d8a/XfXvrmoMdRTwSN2EfIt9z4+/L384CvYZmoimtOBJG0kfk+uJmMdCt4gCTE5lpoCdokjk46Fs3g2jkyIHMcmIacCmmV/fta5CWIaEXmgFzjjk46FlEi6ZJGRI/Bof9vAjoVqJZ0ADOWUEPiONHeLsI6LvmCI3A+kA0oaOk+rCg2/MKE03BOkeOGDziP2+WYNrNitHCtMvRIySNBAoghwV96+Zlwxg8EuEmdpCqXx4e9OfmeIdklSRK09eQUCdRXxwc9GbsOKsDDk4zSyFppKV4UNDj2DFU1uurXd46yiJK2amcSRsk6Zhfkj4OCrqU9NlzCijrrahBXCkhLjSdUIdkm1pBN/rpdwWmZ7bXd7DLKqWESLGOtUFyTmwPTIfVgYuAJ4vphbxdvd9ONcmZJW0UnUQdqBg4MOgCUX67fthulVDw5kwYaU56TkSHNwuCfpHfbqOaPGmKHzYXUoxOYS9Cv1gfFPTdpqL5LeyJHyD1ocTotAojzwPnh2X6zhB6ZnckVk+TjiOFOoEMUAYPTBKJCnk+KOhbA/pFsY1yi9sCHpJA1HRQgA6QftDzYTHQ5e90hZMNx7Qas5wFNtlSYM8UXi4GevR3uhk6ONRx+856UpJ0YjqR/XYx0OXb1cOOBm/udYiYyZUGhv12vRDos/Ue0Eh61qCBJkpzApcAcnEs0E+b7Wjyd079XbZKie2oj4Q54JFAX/4+3TcA0fQ4GSboHD3w8kig301UWUhRz0RpIpq+xofJvjwJplUhFOd0GVLkSKuPq/H0HLRrakGP3v6+mQxpJRbi4HKWqpb8HLQI2AH6aRSjKXvnHO4kqSCFjRA4MS4J2o3ePmz6UuCmI8Co10G6VsO0IOhV+RY2Gv/Ay3DUdAReg0xy/MSlQMOH4q31f5CzOIBpz3CnI9UrqDl8SdDuZfHWvEHTNbAZnJJ3Ds+ijyVBXxRvn7b4pdJFc9tAS0SR9WKgB5tn3kJRqwB9FE5Jl6Hwm58FQb9c57dW7IZp5E66qEMinthpVsqCoN0qv30oAgdw6yBXs9qPBrP+lk8uqeCSt8Wvy26FM04pO4+Qa4BjyGNQNbnSm82NRQBTZXEy5K5SlnS2eQuChovNXp4oQ/K3iR+kj0Q2FkQvyzRgHFqzXVPUEhwdjK2SlIW8+o6j6eEJ7swFnLCkrmRZdrPYSJsYPYfp+YWtwMaxg+b0zSxLU0l6u4F7HsWzWDW+a75KCsOROpBcRxjLA48LmnRBcyhuvFchTBdm6dhMo0yECdOGZXb+hulwMkw7mesYbWVJY1c0jSeiacjGX/uN2UlLGcsSCYU+js20lljjtgFSkUVwxxI5ImiQZEh5BcYdxxShWdN4EppG7eAZA5070kgBj1v/IZyMplGSodtoogO17nJVezrRA82evSu6M9Sgycn7NDIiyDwYFtHDNDwofExBPhbTXH5zQiya/knMgYw0bAaOE/AebEkRCk1LE73oG5xE9AAZYyunZ7RrELRzt1kkLtU1HTdJWSPU87et3WB2waeK2qUrl40srkwXm5zS9McJ13GMymXckdZYxyOwYkjB2js4CaaRUgrNsRVVlgoaNBXiKTDNMydkli0SkKYd7xdi2AJ5eabF6FObPDtPVoSWWVtX4cGZbvn2XR4Y5DAN26jGkwF9HWQvSzc5A+CpM02ixox7qzrCaTHN8QJ2AD4xTQ9Idbh7NJZywkxnvNvEfIpMg+wY7nlOjGnem5Vw/X/CdIB92mgH/R3PoI++vQ60n7ylAF+ucmkDHRz10IXprcCpcvnTn4+eXz41gr751ueah9jEjcI+phm078+9910fPzr/qR70zc3Vl8dvfO65UwqSC3egXk8zPfwBul+qQV/dO1r2ADvT7+4HWMuwG/GI6dETUdeAvqs6dY8ow43blBrE5e37Y2/TtB9+9N3rGtDv648b4sTxX+kiZbwY9lG9nemEej/oLy1HJFGPzMpWMn3L/p9G8HYFjh2g+7gmh8+++2kf6M9YTzKfYqGpXduN5qlurFX/BOhePiPqf3aDrsWc9wupqwT5kKRuCXFRi2FvSpyWRx9/xI/Or3aAXr13bQ/ysWos5hxD7h3gtrbBXtA9sz2sxr5/vQP0LdTTDHIOHBGLOSXt3nF5BbPk4emn9ynbJIFMg64/ww427hWa5maHbChjRZSeAO0TzfEX+rgeiepJ0KsGQecezWgiTPpKIW+w7F+P6+noEYn2JO1I9STopmN7WRvF2Yog606Bz4se3rOk+2RFfAzWk13Th7YjysAHUcFtzoTJ0G5l0EuO+b/eqiPlFdH0oI/u02QRcIstmFEuYzAnWHjagKd+eDKsIuJtgJaF2CvTA9WToB9awx2LGlFHHfmwkB5wqvVam6D9eVLzOWvaR6onQN9iW4CWqX8s9u5Z1MjtpTAHdM/pMAJnngd99K8mQDcQDbqfpbMoqF1/ANs7r8vlG0wndknVPUm77/0m6EZFyxBbHr5zqNuyVLIAVDvxEWhOhj7FaKbae3YgFvRT+2Fwe2ZvdMww1yrYDpoWYPJ4KYentdhni6qg7xotBx9RdqMjLDwjoSZpxkLs9UOYZrK9H4O+br6wQ8dJndkU4hmJBpInFyKFaInUieyuF4eaQT80yoLvjmAt2+sN5FAnBT6cF/I8LUZDc5/1IaCvZtxQhFoBjA5WVFSFO0B7KliSkClCJ137gWpfgG66lsEcQeUiq9w0NFVWaE/jPkuas2GvD+tDmG60HZRWSCB24F9PwTU5j5E8ejbSPdOsqH33swV927QIsViGXAHogU6eZGsSSAbtKUJ70Yk3T8eiZtDvmrWMMBHu+Bx7Tt84L7l40nQWdC/xw3ZN270S6yMfrdDZKg52TStR/TTZo+RISRdMNbf2uk+5CFi3XeYCfCeDK08p87wB7YLbSYm2IiCXWSpqxd29yqDbDB6wV9qYVZKThiFgU2qxoH0us9LPLOg+iTqDbpQ0TeChiR16blb70W1xWmrEXstwYlpjR0IdI3UG/dASovnMvctFS74qQMfQ24gumeaYwWa6t6Luk6hdm6QFdz7AXo455tMVDW5p3FQXYRv/z0QP+vhJQFdLGnWMDdRE62lOnhic1cwW0N5nQUs2LIjuXwno69YozUznUaU8QC9bs9ikj/WIaRL0WNHx47WAfmhN4WhvgcrjpDp+N5dpLrK4FWbSoRDddV5AN15NinIzopmFZYHw+B20Ah9pOlvSkugY9Bj0XUNHWu42g3wUVYvvUhOzMqInphmyySt9YrujnOiaUguYW+TK+zp4H4tdaevWErKmi8Ch3i4l8D5BHtzHKwJ93aJop2nFnrrnywIQ2/2/BU3pRMRhie47+uwE9FO9KQV1/3avRfaE7MmVJtAXJnpot6PwpMnldRw+XHXwwHyh0vj0Oug9I3rKKcwCTfZfrZIRSIwcie4YPlzrZXKQpa3VVuAOGMxhOV1KIn6aVqFYJUacAjRtOseVuIpFQHXwoN75+BYJviSAbWnNpuEO0FyB5/xNVVYyeDHgxS//RNDvqxnOJ+/NAKE9wyJD0q3PGwbtqQLobeuAWSZldwL6Xb2iue9v+zO6Y0iHhsoDnbXPr8q06iPHjRjrUrzjrz8OoFsvdUSnV7oUNyqFMHvjP7xUTfd9XokMO4mjTwEvMf0qgn6oVbQwvVHSkkPiY6hz9EE3FPzHUyFeNjsEecfqGCryAXRLjB5fmCn7QsXR6nbYKwbNjrTIKj3buxSoe0+gL2uLb9lhMUZaCy3u7uJMedww6JRZiGRRR3JJPQU7YrobQNdGPN3LKq/sYHXo5DzMUPYFgf7tXFtK5z4rI65EyokcqAfQVXaJL4E19+xaPWPYfhqkLkwn0H+zne57mwxT8uZATahXriZM54Ocxb3GcqGS7lnMDR+/MmitC42o2XVkyEOgdhVhGnWCRrrR9oqDvFmB81Zhuls9guacUgQPcR3k8+j52dXlFolxrnRLAfQaOcC5qzBdbJpAn5fi8LQIqR/W5Y+f3eqpWtFyhXQYnSKTFVi1NzsdPBJob800L0LOhd5Gjx/d/txijyaLi3Y610GXmn2LotMV1GQ9ytadWDxZhCKQV26vmzaKduP7ibhqmZ+/5bLNWCP+oXo+V9PBiK2ih+zibloUjeVVjvmIk96rOkvSAjpF6FHAI/NPT18PGsEOLOnWLJiGtFwjMU/SawL9d5JGZ5odydYR014hR9BrrPDRODqDmm8KIHXMhUuSFtA6Hlb0Dewq5IDt7rDKdbAlLe+gCRv17JznAw8xkuHoeJBGSkNehRny8Lga64F0L6IegAN7lyNZ0pxi2ltiBPpPf262K7KTZqYVcQS9z3rwVWwy0mbvj8a2vcJd6riM69DrbgU5/mzv0nKsBi0+SXbuJ66v4hO/s6E/M9O/jZkmVXeeNW1inruuGK/6H3VX0xrJkUQLcmfYayZjtNcsPPQ1oUD4OJbVbh/H425JR4F2jK9qJHQ1CJv92auujM+srKrMktzS1A6YYWF4BNGR8fHiBcQ8NDXyOhBpeI6pT7cA+tZLyH2tcrCzU9GuBDRIE8VHUBw16UTrn8Qcl7n0VyTm2la+h/FdiTWAeAyLQCt5cT2555f7OS8iGPr80H1UiXR8BKOlJeAe9Kf5Z0XKE4ldcJRyhPFb6J5h6PPdr47dw2Kt4iiJVribPwsoNI1RnB/MOGhq+HxDnz+5dCtNjQHExninbd08ztGjTYPFrCRHG2LQVE+yVOhA0FvLIxbxGqqCtgQ0dmYMqI2EVJ6IdT6Xho93RB/9Mhga2r7Uiu2DFPT1HBU9hEQxE+nRsVZ5TmJ6uiMm5q2VTceYcvCTkrrH9TTPGAUdtVN3YjFyAeeAejS0Q7a1svNPnV1w6SpLw10vMekUTXTgGpvlhj44NID+ovq6FvIlazlbKgQdKM1Lc/9AS7NmyShL/ggB9K22M6T9XjyJRaANal4Yo0pwbJ4bHMItfAoDCgT2gwvr9SMOVLzsI/4EesrMEDuE2i7tVNfyMge/wb+2Yi/yljph0I4mS2dNPfFDNPIChJbbjUPZZ5Tgf+yEUudua/VMyHsaauV+h3Y+/W+S51uMWZZyDv691huot8lwFn978LK4QtBwTIFecG1oqLGWPSmnf6SXlNijsXFAaXTW0HaK1xHVXGiUxSphgVZQm9rNyv9ldn1vXRI7YIwF2ZKvcI/QsKWNujuFI4r3f9CDVvxth6AvLT2E2AqzYOkRW0/xOoDJpjIlEuzo3v9Fpwefta+99Zp+R3DHv4nUH3Tc064/JND/fakl81sHtFJOlfrpPbGWykCTfrQRcluN6HSE7nT9UpvxZ1aNweMz7m3OlWd92rBHDwWKAPNLgD6zCV3Q8yjLVvm0uP6GPceGVvaewt3pevtCm/Fg55Y5sDw0dKPGHl9iMVCIp+dunvx5/VLr/Hvrkl5H9GdKmfK4x5dYQKAU82hyaVEjPRP05glcq+kzEKOjT/sxU8+075pMN/pfLyOcsNlbO5hlQftO9KQLQUfaPIY7KX8X7029hLzD5qE9QG7dIHR4T9QfVwzasHBm5MDSkU5Yf/s6wLF52O/3q3ZP+x77/n8TX2/LAX3eYj3Lnegy0AGHFTRhUX1/0091JOjtA3Ja08368a+ndNCSQstGjty7OUNn8mljmO2YZtJwzJBB95AXfMBFibAdc/65i171jGOcEw94w7vg8YIr/5iW4PWw1BkXnQ6jIdXahS66n/Lp65GhkOEVJ2Lemd6jGfTZIhuDf/Bwlrvo2CSd+ZqbXN8A02h1HuRg61MZEPaLPMMD7Z+3FETO4aFz58pBG5oKNSmPDR6WdwL0filiGGCl60KAGVxkJMHLWzpm0aFJXm9YMVwzaBnh4D+rWciwZAi7vikVnUKGr3IPg+EjhKbRTTz6GUbQ0p9XjLwIN5KN1cgwLldM1oa5riks6kF211FWGujczVcCvSmCmIHskcam99/SWOcqLB04j84IfXZ8oWNhdG5hpyyhomMNjjm1mykCHgdyDJI/I5f2Aoz8DqDP0JdXVWZ2cf/NodoSp0pcF3o7H/IeMwtOaskJGIL9lVysPi4Fln2tsdPNSM6TiK/kp6HLmQtsZA2PkmHCRKdyJoHux00dnblVO8rQoOFUqeBx+aR7d/gnyJEhNA1IE3MzBLeft7oDB8G9ap8swLGl3SzokMn9k14H8JR+QNDLnhVMlJwisuEDLhgdfs6xm89B0qKR8xPSdnQIyL1FQ0vL7ovin2+F4llSGeLG0EQ5mwGNW1mByaRBXhd6Cnh4HexsQYTG5zBaWJPvEDP6xaxTIwsBWrpNJu2gPXBsViRvYXnYwAU4lxI7aJ5VGPIuglBxx/SZeR0dbSogjfU8TaJXZZjJ0pT880sI/EwLU7jZH+JVSFi7+tK94eABNNbDz3C/xEF8XKwehmkaCLkyQ0cOk1KgMSJ+RAYK9EmBxnreLgjSDn+DJJyj+9HAkxYDgInvpDkPqQKNXELt0yZo/AONdbPAocmVUZzNM+0HA8fo1DAH2tAKKvTtGiXmwvMV6EeP1FirmToWgh0sZ8npG+ZIriRwRNrm2tDxtwDTlSa5LAQLcDDdSWNy4UsDzNc2xRwzDxt7Br4I9XeRaxrrQdxk7/SxS5D5CaDAmUG8Kgl46NPC1NYzX9CNDDqzliaCLLFnKObhsWo8RdyDvlyQ3GF95WBTwekuacqPnvu+bw6LfYGSf8lUohWFSDr4IYL+Up+TOgrTpI2C8zdevPHTtaz87prdb/AeEhdF0A2COKMAoCegzniJx/aMS8UCRKBzZaA/q76/kRQJ6v4f/gss5/0CvPEtaTFAJ1ISsQbwhb7x9J03uGEbQq7ZIeb27yLoRcUKQpeLhswnBRP7khjNoEFVCd9vZWgSvvgaO44L/MKB5BZbWo5YBDGz7HNPoK+wu9sMCAfMgA0I+lL/CFdF76JvxXakZN8xT6k0Rh8exMOObQdJXiCSFY/AaR8cSfBfymOzKAzhYdGZP5ONY5HlbZl3/OcA2kA126T+oY8oRNBn1UmpZ+FMfFY8M7qJW+WL3ePDAfQNiTJo/msQl59N5GYnoKu6NK51yYjFAXHXOlecdxzelgPoRwzOgnAA42TkG5gOQe/rs2gYrmScgyoAa0dIEtkwfQD9U2BFF9XraDq5DLIItFf5klYoos37+Ya0jngH0J9JwrHh861xE8SQjjuCTpqk80GbtFxa2btjGxNRyRdHvAPoC+p1pFI/ICMNutYEelHXA7WgZPvOxgaNxahXGPHO+2V3bnfwS0i0H6DPh0gdyObRq0k7Q36U1OBQZeE76Iv947so04V0ML4bGbqG+GsoytyD/qWoaTfadkyqLOD+1H0fe9DrG7jvm57ZM8w1RktfJh69mq0LIY12Ti9HYlJqmZVS+N1H0I+6Gy3ut+K+fUDQm0WhA7ebxAgO9yscse9KcYOK26eQtg0M0rpZu4osXTnLciDHxjWtnB6WNzvodwigL1KGhCFqB6uELbC0mHVi6KC3EPkzrhKz/QCgr7qQku9QCEoo3y1xjygT4FT7zqox7Rjtf+p3GEX+FN2A9kDoaoUZgl4VGtlD4FBtUseGtrNDoczvsAe9vmm0ihxq9cl1TgK9L44dMBHCED2I0Z5HLOUfySn+BM9hJ8azuKVslvq0w1kWadg6vdOJbY6aqiWKQPagf1ayxphMI203LPdphzW4S/ab2LdrXvD4HgLoq05lHbAQadRS5wjo1dwgXIwM1Qa7AFLjHfcEep1c90WpH3m1QoHez7/ijhzE6QUnnhwil95WujSAfuywZOFjSFxpmUXu4UliPO1HWyfe7SqPVrqmn9RZUaMsvTBOOyqzvOjwQtQAfrRztbg/Cl3Tq05efkYBGqNWWGBrsLwo9GjpZP/NObZ0rXfcyeMG6pY5CdDI9aZAoFflyRJaWq90WhzO1j7hUSCUQD+Saxih1Kcv8ihLF7SkQeNTtaNJCsrOMgbz3QMJ+kJsc8JupNGCW6HCPTxylWDU4lJqJsmy+brf4Z0Cve061Qozw5XOdY1PI+VHDO9F1qGW3yr8wyUHO27ookkHmJPTQsrS+3nfoKDntboZ1VjjC0Nz3kGgP4srClnFzIx77KeZd45JEi2tdOJOSE0/WnQ8NOirDnOljveFwjToueiBkugq+cBCqz5G25P0nsvupjNS/W6ob1YM2qOVldIn7bAwB72uoH3KOwZHaD5xRcjCpCFj6VXxI84/RZXgoWBA7eeGl3Ou4IpaN3ayotTSHlrSfF5Ic8K8XYj64xB0nzSxHw/cozJOeyoOU0NT68DWeYfL3Si66IRyZmZtVsfpaUoYSAQnQt2WiT/TTPSx9D9zWOlG5Bu5M/cMel9gaBQn9Qmzw9WXWGjoDOj1z50RdeHA1GXugf7sM9MKReuofFf0sTCxUmU60GXIrXVW5NOO7oSo0CEUd7F9UJnfZa9BCSE2kxMAmwftxauS7rBwpgSTlurHMHvH9gY0BvMnwYssDfebfEsNGsnN9EKAsupd+X4c9MXURnUE7eYfbypq9YqTdVKAss6hT6YuBj925NQjPu0KH8PBhRDioxQRM7OYR0BvJzbuC9wjPipgb6FtJgjSJHJWE+3W07eZL0aVAootjUldIhIMU6EFLRq3njso/edzfdpxNS57/0R0ZOndUt9Yz17B3l2PXCUTlt5PlCs8WmkHZHTMoKti3arkdPf25hmWxmZpH+2sbHAs/E7uy+6Nb6/zehwFoNXum38e3N7K98VH0nd/m0WWdmLCcjjjerc5P/zBwi7+bYN/vYNv5K8PDw91l913v1wvcg/f0mmhg2PcTe6Nb2e2yte15+ifYszfv1///v7pD39zoIFmjKXLHOjn/LWZ/r+Tb9rSoHkNPfR/EnTdRvJoPu2ZQI/B7v4fO3T/UqDxIhJYuuUTjG8aNO6/Yb3yDYDGHRbRcXzroD0xSls6pvYNWNp5wfzvGzTfhE97XheK9Og3DtqTS0tJhm/Bpx3p+0Na+lDxHR+0a0U9C8e+XF0v5pXcA9d9Dz1/4kS8ZdCAGWsAcXLjzYJ2UH1rIoo6x/ImLY3UHy+W9jzJyBXw144NGnjGyDcQXaVIyfSoUPqCoOvy2o2bIivh7cjBsZ5ZS79oEVAC2uGlvYHWT+zgyYnFWwHtRGvJk1YA7zcJ5rx/I6BFpZIqSVg+ETLbonkFS3u5IZmy/n2JVMCRQbu4x+I9sWFp7Z60r+f5d0d3D3pd/ODYnhdDIf9WLO0Em3SgEgZPS9EOy/EtDbJK6YSFdkH8/FToqKBjt5EErCSJhvWgCgh4R3YPav77gY4ECwS/oehBUi58dlbE6B4ybAzNevUrWJoOTyVLqGPy4q8K2nGzQ89naUESYt3bcg+H3LvBMAtV/stYjsfqmjrqSftU0MWSU2ckt04eHvavVwR4DngSMyiExSH4gMjm+q715vYVKxcidqjLUyj1iZ4hPRoZX/51QDuPGgde7yhT/h8t7bPkqc1rgMbhihO0XbUuhEJQKrs74QHRj6/jHq5l4DpsYBo94IPd8z+1PT5o2gZvBZ1Uj5QzmzeSPLX78VXcQ9CrUh1YcgkN+4P6p17lh0haI3JNAaTNPBHp3Qjja7fzRwYNozfvtYocK+bnN5z0v3x7fEs72GMZbN6gMoofPOEn+l/+9bigPXdIPTakKTpjjObdaunS4l++PCpon1jatk7zMr2T4jn/L+6KVhyHYeA3WBT6LNPlvmOLQ96Phn5HF0N+/zatJctOmotCrfTNLHgH4ci2rJkpyWJHgfZMrhB+lxuW9Fc5880SdFYJE7rXrG1A0ijgZmr/FejBtGqKUnarbFUS+u3zO1asZhZ/6iwuASCzs2fBXWFNvFC+uxwE+g4id6SYQ6l8h+6dC8RRkQ7AYJ8xxsockHgsuFRJPyrSQSTorI0iGPfyaliv6VM5VW91sQ2Jo+C5X9AXBenyaohuK+i2kX7kAl59vCOWwluy0Lmc6tss0g8isAOXlLwwrmBW1mLrYzWVWaSvxGCnqtKsbuDeV5ViudLMIt0Tr7qW6kZqkV6RCD4VKd+swvSbqLk7s1IKYInu16Fp6WXoLKf6LpjVTUEH5EjL9zdRc1yj7EUxFRqCfryaM9FX1uCsx7zW8X/OU11LpZG2oK/pJbz0j3GOSo6wSgWPbD2J5Um7LegePLV1y69QPAq9tvDl9QGRXByrekjLqinbggvx+XzmAPe/boOJkDzl5EedwFteAoaXW3U6L0lHBbaMR1jvOhhjGHG21BuDvjvxbi9uWQ7cXgrAqTnoIZWk5Vkp25okgrUOdGwP+i+/3Bf2D7lQqv6F9qBvzpcXlnRMyqZkqF4dzUH/pqvKwDVZRwJv5HpZhuagp09xJkCJ+Wy3h7fXHDS5PxemN0mTGfSc34sN6MkO1Ut1g5TydmgyENmwPejbjxOUPU/y/nSSBn2gLUAHrCxvSLNDv6TPwQx077KFK4hroX5LjHagAy8QEgxw+7bwUzAEHdAJNUc2JlCnu33t9Xs5VKxJT9QAAACySURBVPck3556fuRZWrOBtyCcrQzvRE1mCwh9vovWoIeepS/48A/qj9Aa9NCT7ozw2kNlhjYHPXm6pqLSnjNpDIeADoQa9dTqlKAPAB0mM1rxmgzajfAQ0F0YHeVoTaAvw4GgAwVbJ3vXDQeDTrC3hxpiYzbzxmH/sz3KsTkFe/NwVoB5U6mx4I2r9prRr8d4jDZkd3V5cvRLyP2fsfvgP/ow6Ofw9tRfoF8MQ/epmdPwH4V+/Db1mLuGAAAAAElFTkSuQmCC;" parent="1" vertex="1">
          <mxGeometry x="1030.63" y="91.25" width="82.49" height="82.49" as="geometry" />
        </mxCell>
        <mxCell id="WDt8Z69bVPwjooa2CbTY-4" value="Image Processor" style="rounded=0;whiteSpace=wrap;html=1;" parent="1" vertex="1">
          <mxGeometry x="1016.87" y="190" width="110" height="40" as="geometry" />
        </mxCell>
        <mxCell id="WDt8Z69bVPwjooa2CbTY-5" value="" style="endArrow=classic;html=1;rounded=0;" parent="1" edge="1">
          <mxGeometry width="50" height="50" relative="1" as="geometry">
            <mxPoint x="960.63" y="30" as="sourcePoint" />
            <mxPoint x="1060.63" y="90" as="targetPoint" />
          </mxGeometry>
        </mxCell>
        <mxCell id="WDt8Z69bVPwjooa2CbTY-6" value="" style="shape=image;verticalLabelPosition=bottom;labelBackgroundColor=default;verticalAlign=top;aspect=fixed;imageAspect=0;image=data:image/png,iVBORw0KGgoAAAANSUhEUgAAAWgAAAFpBAMAAABDl69DAAAAJ1BMVEUmTIPu7+////8CAgISO3i5wcueprDV2d9PbpxVVVUvLy9yjLB/f38zQkwiAAAdT0lEQVR42uycz28UyRXHB1QEJC7Q/NokF3dbM+NfF7Bw5JEPBSrbLfmyDMZmkz0kY5vsBg7rwY6jKAeCxiQSt7W0CIvL2lIirD2w1sAicYotiFjxR6Xrveqe6u6qmh6pymFXUxfw9Ez3p6tefd+rqldVCrD4Z7H8JP4s9aH70H3oPnQfug/dh+5D96F/jtDiX098/pP4sw/dh+5D96H70H3oPnQfug/9s4TuDwL60B8BdGyP8UcfP3REfGnhw9Ptvag8fbayGn360UFDrXawIuLPt8fl8nzFO3LoTMldvbRw5w6vTlEuvt8dz5ba2yOG9tfvbfOWfvZucTV/9UKCuPdsMfq7/OO4skzWjxD6z9tyvT1/V08u86uVjB28/WxcW745KuiLW/mWftfEL0Tf+9N4L2XKOwJoL/hS+fDaM8AOqltmyNre9l6G2jm0Vz3U8ryN5KBsYH7+4UbcLy/c65jQZNN3C+0ZK3LyD/rLtW9W03pzIWmxSc8ttC/Vc+3506jsavi5rJxdv/cevzD5X4VMVmNNmQhcQgdLCdTbDeEbzm58mQP/blFiW/9x/ImnVveL4pdPAoezpsMxVD398PK93ZSVBEVLbE4H7gYBZUSrKaD8vyXY33lGzrRLFfZW85xBL8XKqiyfi1fS4vrrd18/KJFS6dSblWbyKRr2v11BV0Sv0ULx59fququvSywqpET5v/RxIn9Y1w1H0HD3qVSQdCnd2JGvPIitdeHNm8dvVhY7VXqb0VJSCGOnxetVd8V9XUCPJcYHMnv3QYkySkv/fLUo2cuKuPqCMCz0dHL5L6wkF0Zf4ufYgl87gV5KunnUJV/zlo7Mk3C4U29upC3hC/42MRs79VJNTdgj/PyXoDkuoMv8zlcFFEk9PuI+LSlzuZWp0sQSPqWl9JVfeB2z3vGtQ3v3+Y3BQv0XLPNwGSxizl+lP+DbZi+x0x0DiavaJjR3A9/Ck9uspCiMPWoqwdASNvGFSPZXJ+Dzv4Lp+bahK0lF/56W1IUdU5lAmvrX2Rdmf4c33QUBsQwN1gEW/QnTMJeop6JK6JB6OftOtBHEAULDNvQWOoCgSnTM5Jjxcon9Q2kgJISn8PtP+Hahy9BTovIV1VZ0U2scgrqhvAEBAxkB87MLzZvvsqqiOmXGfJnXKfSJVvZjeFuw6q/tzpreF45FX9HkYZeKjr4yx281mqvqmfgJV+0OArYwfPP1Ncm7obGiE0to5z7mdlOOI0Rr0FUR3g3pa3I2unyGmqHR7jVVzcOEuk1oHiztcMHSV+K+wlzz3zqhruq66IoHNqFHUPC6WMdot4qOFGRfWdUnhX1csQnNe4nZOngLz5e6lzmVgKDZRPrxG5vQWxj9r5VM2uGTAtBgRp9QlWM6xH5jDVrIkd5muVUWsA5R1Xm/OYfNOWkRuor9sKqnCo3tkLPqteydWGQfg3ahK9ixR82C1yoEDZVapgqrGRa+wBL0MIalA0Z3WKbFoFldoXrkOFaNRehBvN280aSHCkIT3iq5959FaM8etOgi+vanBQUvkfQqy0tm1S70EioeNdppqyg0hFbLijugEdqCPgTFM4jHNeNV1StmjSlE71Iculs87e2Cgx019sPR4tC8K+beEaHr1gYBHHrH1NN4bDlQHBr8XzvfK3ZhmGgJ2kffog88iddDPxS2kH1J2zVdhak2g8cLe+mHQiEzss4lZcsmdBnD83lTiFcoWkrZR+YtEbppDbqCWjRvEo8y7QEa9GNeVdN2oT3FgEMWj6GeoEkz9wsMgD1r0GPoxVumGHmgN+hcrCLU4wih60Xj0qRM5+7nCJqYFG+5N+gwa9ToEWu+NWgR6BrDpVZv0DmjRuhJq9CTpngpNDVDQaM+cui5nsKlzlCHpO8ROd4p29A+NfSqcq/QYSb8mIZ4esIq9JQJeranGK9j1Gvpe0SO92px6G7x9Ji5prlTHuoZOqPt12C4ddneGLEb9MPefAuuih5LN891eMyV/wM0LtOa+Qk79XJxY2Ph+1Tv5fcYhljSLrRWPXhLg3my0uOVxVt3W8y4HPDHzjIpSd1j0OqsaTfoBng3Rjexl1Q/ZYbFgKa0Ht1K3WPQ6vx0uQt0k3vxzpKtYalRLLvEpZ0KX85BLGkLuopunBhCjzbblHIR/JZpzlQFTTEHxuLyhW+O8gi/tpmi0cn2XDpxpZUJp62uuewaBwEs+sbLTB5N21TRF+6+eXVrNQWNoceUZeimIfqUsr8W7qyAaat1Gxaiyy9QqFPQM/CUCZvQW8aBLU1M+TakJ/0Q6GKRaVgf5cTZeHYWes5lm9CHoKBrhtgHEpRbkV/hSA2NfcAkXpuFK3de0DS0mOndsQm9BL5Kt1obxsk+lPuXCHtOsywAaxyYTdMCaKJwiDaneg0zTKFIBuMP3zzrRRWuma3m2rgGc+oRdPQrP+sQGzahzxnn8uakpCrwDi3e2FQ3LIN7Z0YOvA0G0bdYyzUdhPjLBD3KJCEZmFYPZXjlElgIj241I3+Hgg3WPJupE8OwLFkxQBOaePQISTO3B5x8IZx7zNRwJwSJmrSapDIGy5JlvU3HYSvoQ2T8nhJ6Fu5BHt2KxCM93BEybRW6Yly+kAfjuIpM1K5IcIJMp4c7QqatQpsjplCaE+HpVbcpUbuiWdnEjstuU8i01cQrvhSgj5hSistOPWCgYOeVDjGBhuGOrHgjkQOzC70FcrSsjz2kcJ5qR40paPm9hOLV7UIfgvDPF4GOm3uIGudHOPS83FY3YfbRJvRN9OOGeDo3y64IqWVpJnIlhBDfTNpN2/TQJWrmCRTQs0pVD6VVDm4Ry3L0Fyuevby8EZNLJPkBwoxa1aW349BtabYnEqgrlqHRJY7qoVs5J6lYOaLS23Epb0tKMiZSCS1CV0wuUVHT6slf2eekXgDFo2EZumyaglTUtAa60ZE5+UcMo1/PMrRvcokK6JLSFcmrYHLzpMTDYq4pusR2UfXQREzHOqIiQ093RrVWc00PDS5RAV1SQ0txttQR+QAxHtVahb4JLnGtKLSsDepcFhl6H8XDOvQg3FTtXYpD005KjeRcSDOZfLQLPWIYJTIFdF1pS/zj87lvhNCStcA69JhpwKWGnldPiwkPJcUeMzDWmvKtQ5fBu6iFmubFUFfTnXSFZCYe8yiiOrEPHeAUNek2cjFDQ6W2MvE0/x8MW+xDb+mFOsw3gQ66syQuLdQ0ocs0HEAv6YV6Lg/N1OoBnwvUBDqMnbh96Pv6OciZ/NSMRvKkJfHOaHw6nvOwDz2iF2rFKrMOWloSj6G5P4R+6AB6GIR6VANdKQodJu4lHpEJf7jjYrN7BYRaGVErlsY1AVNUEqOOR2Q8coJ+6ADa1wo1UUBrM0BA36hsVOgPxwMXO/Q9vVAfU6a7+tpsOByIxd13Fv2hk33jnlaoVUkI+rSVufgm4iuwbQPjUgfQS7oVLtV0kj5thVv7GdpxSdwNiYULB9Ao1OeLQV/TD91joxbQIS40NN0cK4BCrQhOFdCmlMjjomcI6GkYFtUcnToxBoanqD9yPA+9L02JKox6OYEWruWqI+iyNsU+P9tITEulHn5dQDfQtbg63wNXA0gRyaOBfiWdtwLvpBhmUYwQGq6gtZqXdy7GzRhi8xFK3jQuawWuoJd0SdR5fZs1ZReK3Gn4FZh0POXhAvocaN6Acto57d65eFS00AzTTCH24MYfr4k7gR7WaV4u0DBvxuCvFLUDSHmIJn3gDBpz/RSOLtftqHkzBrfjNgHNQZMeD5xB+6B5PumagdltUxSv3q/4tsQB9hBUesIdNM/JVk+G7mes5po2xkOjhgyKushISEzaybmmfIlLuRmOt7RsNd02RfHv+3xaqh3ihNuBu7PFPJyEPN81wZ9LgjH3lM9+vOa/uSYCD4cHoo2Y5ENKuwmDLlsEeM/d4LW9jybt8ui5MZ188J4o6fJMty0CkPLBf4KThDsuoas4TCTqhKqWPJIxZ9vD7F3UZtM4n9JweTKhp5MPMOoztEAwnUqEnH8o0h6dQuPU2Lw63KyS/CS0toBwcasqwzSNS+hzIB8D6sFL0hVp0HWrDqRvVubExJXbgyv1s0wzUipvgU3ChNvTwHWxAOUWGqMPVSfjkVt82NG0aaOGZB/lBm5tCdxC+zh4UVQjHNCBud7kuCkule0pniH05cdYhxaDF1UABwd0VPkBXrlIROsUcT6sLs5OXn+/t/cfF9A3dT1RnOvi8xPpCu3zo02xEFxb9fxL6wviROID+9DCkat6IhE56OuvS6Y9ohn/AucGjksndU46gNb3xNhIxVYQxors3YJTZdKlYXXWFP/U9sQwlVy/uP6iCzXdFGkCnQNp4Y8rtgcBKKvK3Oh0RfNiPvuKfQ9f+iw5UpmfVc7PgL7q24e+D0vYeXGAZP/f1rtvZZC7Ldebe9vPn3644SXLfhMOoHGJPH94y0k42KZ2IEGbtJrVA1UZhF2U1qEr6lOCIAOZ96p/rRaq6hklM3c1Lmo6wLSgeUUo4YuT35/ECEPU7A8v5KDH3Ng074n5zfUwEhkZ7xxwfFG/ayQOXoMv2AlFTV92oB4iWaWcn2+M5Yu7hyqB0V/LNEaMoitxPCd0yLsNvPmOC2jM+0jzQGvHR1PvQGRN5gLDJFMcvDL6anHj0sb67x6w0BPbaVxA+1iXazTrWMS55fwsXz6KZKbhS5J/FXlOinuiGoE4HcgFtDBqOfyAMKIiKvpb0QONA0VpQhvHaHi46a+s7huX/zyHy2ckE7Dd7FQ0at11wyzTycw1ceTpFu4KcAA9hkr9P/bO5reJJAvgBrWWSFzoAhIGzYEqZDcmvrCtJLLlQ69kQqRcBueDWTEX8sUwkwMYQnZGHLIoiyJxmlgwcsRlYw3I0R5YlGWROEE0IEb8UVvv1UdX291O/AXNyj7MUOm2+9ev6+O916/emw6a4o5RyyLlRbwwj3hbqpLLnnaFg6wH0DKA078odsfjKOb3eM6CJ6OVItdEE9pSyYcdfFC9gYaH+NZ02aj5ThU6SRb2c0KCQTZckGPQe1DUoTvCm9BVr6n/FuOCMX+gNyDt5nQpgGlPaVDNoNndNf6vgYe6Ek1aatPdNwLkS9Cssd5NCOnPaT2poDWoSOj7yg9rqFdqYeoNNOal0voQAmR0+neVMRvVuP2gjY+oQLDZO+gpsSiKWB5cyeZ1Svu7YuOZyK4aCf0inDnLegedVtOxJ1eFpHr/sLJWEJxesSn0XB3zPaOWRI+gmXyQsMN3UpgzeLnB58qcFZmmo6GDJkBKFhvJs15Cy5R/LLnxkIiZm4iN1WrmPtp8xzuYDI5U8IZmy4Yh3kPotHEFsZIRlLuMfC0cJc2tAIgPm8/Vnnz4UDEq/7yhPYWmwWoSVekYeiWzezxQM1mUpGUaseDnGetxCaspf9QIlUEMRGf21cbGS2klvm+i5dV5PODziPW67lYGCwsxFVgdkLu6lbFo6Am0NQPFgeaY3fNiYWVdIoWWzdnKn3hhqW+2+zmAfJ20Ue6nZWhUFPIlv2JVlgSYnfI+0HxYPMUqaTu1dyUW9FD3ClqOox0c/HvqDkzmZtDj2Kk2+cizW71uR9Bp/+GOCN9Bzp8EU2W32U5AjAIGfZ+1ft22vKaqyfz6W0VHzgQ1tAHokFjgmkBfwqE898lLwpKkmrN+oeRrfQM7FV3OL7p7gNqa/hzQtiJ9CvPr1/Wzbq5pnz6M0KXPUHxX9NxH2Mf8AmuS+R5qr1GSPow+NPJ5KgavLKoLE6P2JO/cpUzT3a33EZp9/jLHfATObsnyfITuC308FtCieXJm6YqMDBlpGox8G/0Q8YBWf2gOXQSVPMviVgW7OXQJPIL5Lwwa1enROEKPRkKLBLcjsYMWe+MjfHlCnR6LKfRwJHQ7e0Q+r6QnUTPdjh10shn0uI4v7Qi6E702tOmg2RgBfVGnmOhIn/6k0FIzfRtT6Ii3n4fVVr6YQdMm0KCZykxAsYPORgWcSiWPfFnQqOS5NHbQIlghvN4BeKenMHl63KCr0UnYhZKXjSV0ZLp7gC7j++QYQpMIaHD0ykRRsYRej9JMRR7yuEGX0a+x3kQzjSG0CLDYjVDyVBLCmEHPR0OP+0kI4wddjAiyv+TnEfvEXtP9PH1T+HJgOkL1SMtXB/EyAoiIvzkRoXqcbWdTbc+hIeXsdnhyX1jF5eb2uEFHJwWEBVFtm4wldJg5LhLc5uIInUYXU5gVMKlDx2MHnRFJAa3Q9FEpVdY+ZtApEVO2G2oCpF2ZZi5m0LI+44lQHe9sWxvFew9NoyqbjgvFZC6O0LKiYoOVCCHKsr5DDKHL4o3/bsiEl9EhVnGDnhdkdTumcHP7bTV5xA76rBiJwXrGlgrx3IwntCoePm0GWmMxF1nIt2Po7uvT8CYRnf1GgfrCRFEaNXna+YV6AQ1TBCoYp1SsXuFoScZfy4Tv8YOGxAlC0/9WBJENXNcmr0xDHkPo4zoe6+SrtYGXV4gfWzZKYwqNJTcb4rHErsm3sYWG5UUE0tZH7+ZZfKGhI+hMx+IzWBXijy20LUKbnhnMYsvkCIsxNPkZGf+lg6TLOoIvvtBS1G7u+iqhKzdk4E2uyGINTb5y3bDdyrGGtnHrSjAia47FHZrQvSCziu2MMzSn/sEU8++MfQHQXI/8rqqRS8zuJnQP9GnZ5P+/V6lUMN64u7/cQ2jbyNvxJUH3qNmH7kP3ofvQfeg+dB+6D/1JoXumT/ew2YfuQ/eh+9B96D50H7oP/f8NLfW2Lwt69sfXD19er/MLM2f29cbrxcvsQC+hP60+TZzvxYvnwsR/zArSzo/yzw8vq5MHl17GwwggzlpBpxX7E9FHk+syfUyi4P1bnnysMEFjAU13PahH70F+v0ThH1QehaRTkCwXStVbgppDe/GAJqc46tHFW4QNXbX4P+fkUc5cGFhctYdWnluehXmcbBIb6HUuXtkE6Y5TPPo3T/wZ5pW7nHq8ZUnXfboKnfQSk0Q1U1bCK8HRpAUJp9SsMWxhKFxrkv5rpVLZqtRqta3KY9Jl6FOe9YLqNzLfeNZ9OHrHg3yu+mTehSZblfSUmQSn1FVocifhEb/J5X6RY1ELE0n6J69DvsP2od3R7kIvJCYNDt7DoXnOs/4eOHnYsy612D2m3EdL4lOp+pUpugO9jqLVzenEBD+6KzJ2GievwwNpUdKbRijMGN2HA5MoHRz6L+bREwmrZNMCZuw0Tz7Gu37L0Lp5ev/a5VtP6cEFz6FNDt4xSjbvDC/qTnYs6xAl7UI7OiAtUngY/XVw6ENm81yhUCQ3PUwUHjh5F2bwdqFZWVUQ6hb0JZNjcGOtyLv0ZMPJMMu0LWk2Lxpdgq4biOKgBeWj6k7m/abYXNJ1oQNyIIqYjXmV4DFSRcaQsIPq0yjV4FGKK0zdyUno52egAtrBjIAg9O3uQt+B7C/BoynPmms82bIOtw992v1zUAlRLdIIrQ0p+VMN+gtEgVtH6jiGoSc0ROXwEdsFSQ/dMrPa0SGbyWZVQvO/rfpWIKzOQ6vqh4lMSQb7dbxrQYPqnJcICSXa5XN329CyT9/YcXO135GNf77bqro7lWucxJlZcfOrM5epzQbhj48hq2KJ0Zlr2Aa9eHBrR37VxrXO8h6U1JNhuJBM0Ebo6cR4J9DQ2DMyiTH2h06QibtwsPoDkQnG8iTNv5F0x1LQ5tA/ya/KPAKnIIVr4uUtdf+wGSYM+g4fsW1DY+7gnzlaBRSRX6DA9mnXrX1c/lCFdNEyLfkIhdDBXGXLdbcF9AWsIFLEvRYfl8uu+0xSYqGagqfMV4CebIS2O4FOwn6EJMiYQdqzXMmG9eYRHB+sutvUebfk5peW3oBqCNFgqXJWQldz71ZnCT8Zvsp+cHNFcWHnOVqwhcLRK+Kyd8KgyYn2obmM87DJYxRHE91z/0k5kCgVw87zZYXP9VXYAMIF/Ss+8ZT7AaGfuli7J42R3/w0+KrMnnjVktgD16A9jTZXPdaxxEQ70ChNzEdflbVhSMrNU/7At5mM281RNeWl+Z2In55yETqXZyII8q2YPjJGwXnn6hrmyBXZ1EOhSevQj2b4Z3ZpmXfjXIkLLy+P8h5e4nwSmpSxtyD0beju+NMpt7qJ6X/wSYndDBQTMBaNik9311DckIo4tHtwpbVVaDMdLeXdYFtBH+eCS6vyR0RwIHTZ1QtEFSUt2hkR9k1xldo0LgzVjKwCZtcOHYitzx45n5nPVFyKc+ooSNmX9L2PWtLVrL7wvOgeuGKK+8Xvprg5YV6IL1ffW5Beu1tTXq0Cn1qtAmsCf7DEn0zGWEav24ypZZyqDTcM9ioDdFY/GXky5fNi3YXA3eFB7+3e4qJDGMtZfdThhNwueG+qEwCdVFYZg9Q/AI03wX+qqCeiar4xWfNCwnpxJnQZX9hvGW/Up6kZLyoevWjyK8O+m50n1wP6dEqpVdglNvHmhDbuuxjL2Ub1mitLh8DkatSYQfFu2wjgZ1fzQeiMrOB02YfOGNBphBa79/b8SmA5qN5IGA2YCE4icRFU00YsbiSSDqCpCV2G2fauSFHpPm4CPSahzQBqRr7deEjrXHuTjidz8JsYDpjjXZQ0dK+TH3bkhpCo7iH2K+/lhANlcWmW/5eRafA4m9ALfJKwsJp3EAuU7E4kXd+n5ahY4VpQjmjosVDoeTfgyyQ3wTljQk/zNSTMsD0DvoVOoMs+NNW7xQjqG28ltOPXV+ZmgwldCjw08BY0QIe5EMB91pGk9/yKJQ6uEOoezvNOIaBpVe/1BQ1cQ98WXjV94WNoWgW7Bw1x1sA4pB1JegqXZGzCgFv+qI5meKcQ0FwpIfKnYRnX0OeF1wSOpXaeMfAovWiADnGLwX3YnUjaPo1tIiA2UeOQL0p86Cld6DzlGtAZsctTPJZtZqe8xCEanD3GaYgDcqEdB2QAOoNZk4iYwor88asXJSkNzee5UflCc4preRpaLu8Ef5UPAMcLuHptaiWO0EZXr2NZF1lnkuZ6c0mJNsu4PrEp7yEt+jRwOWrHZMrdMiTNH4u8Q1p1YarZTSSKBkcKHDWNTvVvYL3pTNJcts+YlNYFZoMxooS3yf/OxyCFut45sEMGy+5XxuJC0uiVJ9A7RvBNgGcdof4vAx0/Ou1B8UGNMVyAnAmdQUO2DrSdfgJLFYT6qxQqNwlgDL6xb2G+8hpkJ/8tbUjaRjMMzq2KfOTDXK+b09N20kKnOr4o+q/GSq5jRg3sHsF3VrQFaFiNn7xb/sN1fxOC560rszdcITxuM+zwf8h85ehC0JLGrXJPFmeWqzKjMF9JLLF/HCbQXZA7XOimh8Upcdk6CcV37gtJD6zMXFkVHzCmLkdDz4t8VMYY/99gx75bgie7YDcagLpikHgAN4/UZq2yWjVNSBHkaFWYowUVTyFtRASaKg2akd1aCOlyAYMdUmwrAh3qwB0uKCRYngG+fMehCOxoFnAHGAxAfUqkYWL09nTNmST0QUQ1cBNpTRFk7EIV4pA1QRCuzKxVkEEN8XJI9pykpH7mOFxvJvjI8iToCJNSgAto2IOhA9xJBF9XA4p0MdD0rQtM1AWcxsHHP8CPJQBmVtCQMElLJ0TToIsaIHKlYeGCCC5o8A4cN5BOwCF4xoGkgrBj6ULwcTBF2LgHqDfOCrMI6GoXqCiDi3eZC3j6U8AFDZDqaFR3YIyMqpcLIXouhzD1InOhe/aB4bkVqcsougHmtO4i0N2swEaUdgcS2AEEjdRdpAJtZEBuewkioFg9uqOjoaNjWxHKIhVFsR0dDRwd28KBAuos0Jv8MAA1Ha0FneUA15pERJoi0kw8uqwgeLEC/Eox2i0H0oQeJQFqCNoQo5fAYayKWzxov4ZJFT4sJgWqVyhe8CSk3Uh7RytNhlWTi4m/FBofF76+gpaOrgLVfIXlMYtJmjca4CVu6sjV5FBxtBC0mlwZNJRWQAoBK80zxwKH2rJNLFXA6ALZYeBouq41pRJ31NGjjh519KijRx096uhRR486etTRozv0BwkXAEwsGS704dg+AAAAAElFTkSuQmCC;" parent="1" vertex="1">
          <mxGeometry x="1260.63" y="82.49000000000001" width="99.72" height="100" as="geometry" />
        </mxCell>
        <mxCell id="WDt8Z69bVPwjooa2CbTY-7" value="" style="endArrow=classic;html=1;rounded=0;" parent="1" edge="1">
          <mxGeometry width="50" height="50" relative="1" as="geometry">
            <mxPoint x="1210.63" y="129.5" as="sourcePoint" />
            <mxPoint x="1220.63" y="129.5" as="targetPoint" />
            <Array as="points">
              <mxPoint x="1130.63" y="129.5" />
            </Array>
          </mxGeometry>
        </mxCell>
        <mxCell id="WDt8Z69bVPwjooa2CbTY-8" value="" style="endArrow=none;html=1;rounded=0;" parent="1" edge="1">
          <mxGeometry width="50" height="50" relative="1" as="geometry">
            <mxPoint x="570.35" y="350" as="sourcePoint" />
            <mxPoint x="1370" y="350" as="targetPoint" />
          </mxGeometry>
        </mxCell>
        <mxCell id="WDt8Z69bVPwjooa2CbTY-9" value="" style="endArrow=none;html=1;rounded=0;" parent="1" edge="1">
          <mxGeometry width="50" height="50" relative="1" as="geometry">
            <mxPoint x="580.37" y="350" as="sourcePoint" />
            <mxPoint x="580" y="-140" as="targetPoint" />
          </mxGeometry>
        </mxCell>
        <mxCell id="WDt8Z69bVPwjooa2CbTY-10" value="" style="endArrow=none;html=1;rounded=0;" parent="1" edge="1">
          <mxGeometry width="50" height="50" relative="1" as="geometry">
            <mxPoint x="580" y="-140" as="sourcePoint" />
            <mxPoint x="1370.63" y="-140" as="targetPoint" />
          </mxGeometry>
        </mxCell>
        <mxCell id="WDt8Z69bVPwjooa2CbTY-11" value="" style="endArrow=none;html=1;rounded=0;" parent="1" edge="1">
          <mxGeometry width="50" height="50" relative="1" as="geometry">
            <mxPoint x="1371" y="350" as="sourcePoint" />
            <mxPoint x="1370.63" y="-140" as="targetPoint" />
          </mxGeometry>
        </mxCell>
        <mxCell id="WDt8Z69bVPwjooa2CbTY-12" value="" style="shape=image;verticalLabelPosition=bottom;labelBackgroundColor=default;verticalAlign=top;aspect=fixed;imageAspect=0;image=data:image/svg+xml,PHN2ZyB4bWxucz0iaHR0cDovL3d3dy53My5vcmcvMjAwMC9zdmciIHdpZHRoPSIzMTYuMjI3NzY2IiB2aWV3Qm94PSIwIDAgNjUyIDY1MiIgaGVpZ2h0PSIzMTYuMjI3NzY2Ij48cGF0aCBmaWxsPSIjZmZmIiBkPSJtMjI3LjIgMzI2LjFjMC0xNy4zLTEwLjctMzIuNS0yNi45LTM4LjMuNy0zLjcgMS03LjMgMS0xMS4xIDAtMzIuMi0yNi4yLTU4LjQtNTguMy01OC40LTE4LjkgMC0zNi4zIDktNDcuMyAyNC4yLTUuNC00LjItMTItNi41LTE4LjktNi41LTE3LjEgMC0zMSAxMy45LTMxIDMxIDAgMy44LjcgNy40IDEuOSAxMC44LTE2LjEgNS44LTI3LjEgMjEuMi0yNy4xIDM4LjQgMCAxNy40IDEwLjggMzIuNiAyNyAzOC40LS43IDMuNi0xIDcuMy0xIDExLjEgMCAzMi4xIDI2LjEgNTguMiA1OC4yIDU4LjIgMTguOSAwIDM2LjMtOS4xIDQ3LjItMjQuMyA1LjQgNC4zIDEyIDYuNiAxOC45IDYuNiAxNy4xIDAgMzEtMTMuOSAzMS0zMSAwLTMuOC0uNy03LjQtMS45LTEwLjggMTYuMi01LjcgMjcuMi0yMS4xIDI3LjItMzguMyIvPjxwYXRoIGZpbGw9IiNmZWQxMGEiIGQ9Im0xMDEuOSAzMDYuOSA0NS4yIDIwLjYgNDUuNi00MGMuNy0zLjMgMS02LjUgMS0xMCAwLTI4LjEtMjIuOS01MS01MS01MS0xNi44IDAtMzIuNSA4LjMtNDIgMjIuMmwtNy42IDM5LjN6Ii8+PHBhdGggZmlsbD0iIzI0YmJiMSIgZD0ibTU1LjEgMzU0LjdjLS43IDMuMy0xIDYuNy0xIDEwLjIgMCAyOC4yIDIzIDUxLjEgNTEuMSA1MS4xIDE2LjkgMCAzMi43LTguNCA0Mi4yLTIyLjNsNy41LTM5LjItMTAtMTkuMi00NS40LTIwLjd6Ii8+PHBhdGggZmlsbD0iI2VmNTA5OCIgZD0ibTU0LjkgMjc2LjUgMzEgNy4zIDYuOC0zNS4yYy00LjItMy4yLTkuNC01LTE0LjgtNS0xMy40IDAtMjQuNCAxMC45LTI0LjQgMjQuNC0uMSAzIC40IDUuOSAxLjQgOC41Ii8+PHBhdGggZmlsbD0iIzE3YThlMCIgZD0ibTUyLjIgMjgzLjljLTEzLjggNC41LTIzLjUgMTcuOC0yMy41IDMyLjQgMCAxNC4yIDguOCAyNi45IDIyIDMxLjlsNDMuNC0zOS4yLTcuOS0xN3oiLz48cGF0aCBmaWxsPSIjOTNjODNlIiBkPSJtMTU1LjQgMzkzLjZjNC4zIDMuMiA5LjQgNS4xIDE0LjcgNS4xIDEzLjQgMCAyNC40LTEwLjkgMjQuNC0yNC40IDAtMy0uNS01LjgtMS41LTguNWwtMzAuOS03LjJ6Ii8+PHBhdGggZmlsbD0iIzA3NzlhMSIgZD0ibTE2MS43IDM1MC40IDM0IDcuOWMxMy45LTQuNSAyMy41LTE3LjggMjMuNS0zMi41IDAtMTQuMS04LjgtMjYuOS0yMi0zMS45bC00NC41IDM5eiIvPjxwYXRoIGQ9Im0zMDkuNCAzNjIuNyA0LjEtLjQuMyA4LjRjLTEwLjggMS41LTIwLjEgMi4zLTI3LjggMi4zLTEwLjIgMC0xNy41LTMtMjEuNy04LjlzLTYuNC0xNS4yLTYuNC0yNy43YzAtMjUgOS45LTM3LjQgMjkuOC0zNy40IDkuNiAwIDE2LjggMi43IDIxLjUgOHM3LjEgMTMuOCA3LjEgMjUuMmwtLjYgOC4xaC00N2MwIDcuOSAxLjQgMTMuNyA0LjMgMTcuNXM3LjggNS43IDE0LjggNS43YzcuMi4xIDE0LjMtLjIgMjEuNi0uOHptLTMuOC0zMC44YzAtOC43LTEuNC0xNC45LTQuMi0xOC41cy03LjMtNS40LTEzLjYtNS40LTExLjEgMS45LTE0LjIgNS43LTQuOCA5LjktNC45IDE4LjJ6Ii8+PHBhdGggZD0ibTMzMS4xIDM3MS42di0xMDIuMWgxMC42djEwMi4xeiIvPjxwYXRoIGQ9Im00MDkgMzIydjM1YzAgMy42IDguOCA0LjMgOC44IDQuM2wtLjUgOS40Yy03LjUgMC0xMy43LjYtMTcuNS0zLTguNiAzLjgtMTcgNS4zLTI1LjYgNS4zLTYuNSAwLTExLjUtMS44LTE0LjktNS42LTMuNC0zLjctNS4xLTktNS4xLTE2IDAtNi45IDEuNy0xMiA1LjItMTUuM3M5LTUuMyAxNi41LTZsMjIuMy0yLjF2LTZjMC00LjgtMS04LjMtMy4xLTEwLjRzLTUtMy4xLTguNi0zLjFoLTI4di05LjVoMjcuM2M4IDAgMTMuOSAxLjggMTcuNSA1LjYgMy45IDMuNyA1LjcgOS41IDUuNyAxNy40em0tNDMuOCAyOC45YzAgOC43IDMuNiAxMy4xIDEwLjggMTMuMSA2LjUgMCAxMi44LTEgMTktMy4ybDMuMi0xLjF2LTIzLjVsLTIxIDJjLTQuMy4zLTcuMyAxLjYtOS4zIDMuN3MtMi43IDUuMS0yLjcgOXoiLz48cGF0aCBkPSJtNDUwLjcgMzA4LjVjLTEwLjMgMC0xNS41IDMuNi0xNS41IDEwLjggMCAzLjMgMS4yIDUuNyAzLjYgNy4xczcuOCAyLjggMTYuMiA0LjNjOC41IDEuNSAxNC40IDMuNSAxNy45IDYuMiAzLjUgMi42IDUuMiA3LjYgNS4yIDE0LjlzLTIuNCAxMi43LTcuMSAxNi4xLTExLjUgNS4xLTIwLjYgNS4xYy01LjggMC0yNS41LTIuMi0yNS41LTIuMmwuNi05LjNjMTEuMyAxIDE5LjUgMS45IDI1IDEuOXM5LjctLjkgMTIuNi0yLjYgNC40LTQuNyA0LjQtOC44LTEuMi02LjktMy43LTguNGMtMi40LTEuNS03LjktMi45LTE2LjItNC4yLTguNC0xLjMtMTQuMy0zLjItMTcuOC01LjgtMy41LTIuNS01LjItNy4zLTUuMi0xNC4yczIuNC0xMiA3LjMtMTUuNGM0LjktMy4zIDExLTUgMTguMi01IDUuOCAwIDI1LjggMS41IDI1LjggMS41djkuM2MtMTAuNi0uNS0xOS4yLTEuMy0yNS4yLTEuM3oiLz48cGF0aCBkPSJtNTI5LjUgMzA5LjhoLTIyLjZ2MzRjMCA4LjEuNiAxMy41IDEuNyAxNi4xIDEuMiAyLjUgNCAzLjggOC41IDMuOGwxMi43LS45LjcgOC44Yy02LjQgMS0xMS4yIDEuNi0xNC41IDEuNi03LjQgMC0xMi41LTEuOC0xNS40LTUuNHMtNC4zLTEwLjUtNC4zLTIwLjZ2LTM3LjRoLTEwLjF2LTkuM2gxMC4xdi0yMS44aDEwLjZ2MjEuN2gyMi42eiIvPjxwYXRoIGQ9Im01NDQuNCAyODQuNHYtMTIuM2gxMC42djEyLjR6bTAgODcuMnYtNzEuMWgxMC42djcxLjF6Ii8+PHBhdGggZD0ibTYwMS4zIDI5OWMzLjEgMCA4LjUuNiAxNiAxLjdsMy40LjQtLjQgOC42Yy03LjYtLjktMTMuMi0xLjMtMTYuOC0xLjMtOCAwLTEzLjUgMS45LTE2LjQgNS44LTIuOSAzLjgtNC40IDExLTQuNCAyMS40czEuMyAxNy42IDQgMjEuNyA4LjMgNi4xIDE2LjggNi4xbDE2LjgtMS4zLjQgOC44Yy04LjggMS4zLTE1LjQgMi0xOS44IDItMTEuMSAwLTE4LjgtMi45LTIzLTguNnMtNi40LTE1LjMtNi40LTI4LjggMi4zLTIzIDYuOC0yOC41YzQuNy01LjIgMTIuMy04IDIzLTh6Ii8+PC9zdmc+;" parent="1" vertex="1">
          <mxGeometry x="890" y="430" width="85" height="85" as="geometry" />
        </mxCell>
        <mxCell id="WDt8Z69bVPwjooa2CbTY-13" value="Elastic Logs Monitoring" style="rounded=0;whiteSpace=wrap;html=1;" parent="1" vertex="1">
          <mxGeometry x="865" y="490" width="135" height="40" as="geometry" />
        </mxCell>
        <mxCell id="WDt8Z69bVPwjooa2CbTY-15" value="" style="shape=image;verticalLabelPosition=bottom;labelBackgroundColor=default;verticalAlign=top;aspect=fixed;imageAspect=0;image=data:image/png,iVBORw0KGgoAAAANSUhEUgAAAWgAAAFoBAMAAACIy3zmAAAAG1BMVEU3dqr/zz7/2Eg2b5/v7+////+Mrcny46PE0+DUwACtAAAgAElEQVR42tRcTW8cNxIlULaQaxMOfG4hQa4F0BF8dDYar45CMFJ0FKBY8DWAczegyPDP3ibrg8Wenhmy7emZbTujyB3Ez8+PVa+KRbobetaX9HzDt+nfr75+eXw8c/ycnT0+Pn79Gl+tv99vdOm+0/9rdbMe4DqHgC44fSCE4adzjx//PTXQq5vLAXBCN/0Mr4J7/PekQF8NiN2+ZwB+9nF1KqCv7vcjFtj48fLmBEDXQk7/FQ6wHwn2EUGv74eFV/mgwP64Wh8T9PtawEz08AkA4ex5fTTQ68+u5Ym4ASL0gH/dHAn03T02Yo5MDyrBgeyPRwG9urtvQCx/vEEcEfqg7B+OAboJc+QZI16kf41c/7A86EZtuMw0RIGgcL0k6HUrz5HftAyjspNGIPy1LOjV51aK498LJoqRqR64/jAXNH9d8a/XfXvrmoMdRTwSN2EfIt9z4+/L384CvYZmoimtOBJG0kfk+uJmMdCt4gCTE5lpoCdokjk46Fs3g2jkyIHMcmIacCmmV/fta5CWIaEXmgFzjjk46FlEi6ZJGRI/Bof9vAjoVqJZ0ADOWUEPiONHeLsI6LvmCI3A+kA0oaOk+rCg2/MKE03BOkeOGDziP2+WYNrNitHCtMvRIySNBAoghwV96+Zlwxg8EuEmdpCqXx4e9OfmeIdklSRK09eQUCdRXxwc9GbsOKsDDk4zSyFppKV4UNDj2DFU1uurXd46yiJK2amcSRsk6Zhfkj4OCrqU9NlzCijrrahBXCkhLjSdUIdkm1pBN/rpdwWmZ7bXd7DLKqWESLGOtUFyTmwPTIfVgYuAJ4vphbxdvd9ONcmZJW0UnUQdqBg4MOgCUX67fthulVDw5kwYaU56TkSHNwuCfpHfbqOaPGmKHzYXUoxOYS9Cv1gfFPTdpqL5LeyJHyD1ocTotAojzwPnh2X6zhB6ZnckVk+TjiOFOoEMUAYPTBKJCnk+KOhbA/pFsY1yi9sCHpJA1HRQgA6QftDzYTHQ5e90hZMNx7Qas5wFNtlSYM8UXi4GevR3uhk6ONRx+856UpJ0YjqR/XYx0OXb1cOOBm/udYiYyZUGhv12vRDos/Ue0Eh61qCBJkpzApcAcnEs0E+b7Wjyd079XbZKie2oj4Q54JFAX/4+3TcA0fQ4GSboHD3w8kig301UWUhRz0RpIpq+xofJvjwJplUhFOd0GVLkSKuPq/H0HLRrakGP3v6+mQxpJRbi4HKWqpb8HLQI2AH6aRSjKXvnHO4kqSCFjRA4MS4J2o3ePmz6UuCmI8Co10G6VsO0IOhV+RY2Gv/Ay3DUdAReg0xy/MSlQMOH4q31f5CzOIBpz3CnI9UrqDl8SdDuZfHWvEHTNbAZnJJ3Ds+ijyVBXxRvn7b4pdJFc9tAS0SR9WKgB5tn3kJRqwB9FE5Jl6Hwm58FQb9c57dW7IZp5E66qEMinthpVsqCoN0qv30oAgdw6yBXs9qPBrP+lk8uqeCSt8Wvy26FM04pO4+Qa4BjyGNQNbnSm82NRQBTZXEy5K5SlnS2eQuChovNXp4oQ/K3iR+kj0Q2FkQvyzRgHFqzXVPUEhwdjK2SlIW8+o6j6eEJ7swFnLCkrmRZdrPYSJsYPYfp+YWtwMaxg+b0zSxLU0l6u4F7HsWzWDW+a75KCsOROpBcRxjLA48LmnRBcyhuvFchTBdm6dhMo0yECdOGZXb+hulwMkw7mesYbWVJY1c0jSeiacjGX/uN2UlLGcsSCYU+js20lljjtgFSkUVwxxI5ImiQZEh5BcYdxxShWdN4EppG7eAZA5070kgBj1v/IZyMplGSodtoogO17nJVezrRA82evSu6M9Sgycn7NDIiyDwYFtHDNDwofExBPhbTXH5zQiya/knMgYw0bAaOE/AebEkRCk1LE73oG5xE9AAZYyunZ7RrELRzt1kkLtU1HTdJWSPU87et3WB2waeK2qUrl40srkwXm5zS9McJ13GMymXckdZYxyOwYkjB2js4CaaRUgrNsRVVlgoaNBXiKTDNMydkli0SkKYd7xdi2AJ5eabF6FObPDtPVoSWWVtX4cGZbvn2XR4Y5DAN26jGkwF9HWQvSzc5A+CpM02ixox7qzrCaTHN8QJ2AD4xTQ9Idbh7NJZywkxnvNvEfIpMg+wY7nlOjGnem5Vw/X/CdIB92mgH/R3PoI++vQ60n7ylAF+ucmkDHRz10IXprcCpcvnTn4+eXz41gr751ueah9jEjcI+phm078+9910fPzr/qR70zc3Vl8dvfO65UwqSC3egXk8zPfwBul+qQV/dO1r2ADvT7+4HWMuwG/GI6dETUdeAvqs6dY8ow43blBrE5e37Y2/TtB9+9N3rGtDv648b4sTxX+kiZbwY9lG9nemEej/oLy1HJFGPzMpWMn3L/p9G8HYFjh2g+7gmh8+++2kf6M9YTzKfYqGpXduN5qlurFX/BOhePiPqf3aDrsWc9wupqwT5kKRuCXFRi2FvSpyWRx9/xI/Or3aAXr13bQ/ysWos5hxD7h3gtrbBXtA9sz2sxr5/vQP0LdTTDHIOHBGLOSXt3nF5BbPk4emn9ynbJIFMg64/ww427hWa5maHbChjRZSeAO0TzfEX+rgeiepJ0KsGQecezWgiTPpKIW+w7F+P6+noEYn2JO1I9STopmN7WRvF2Yog606Bz4se3rOk+2RFfAzWk13Th7YjysAHUcFtzoTJ0G5l0EuO+b/eqiPlFdH0oI/u02QRcIstmFEuYzAnWHjagKd+eDKsIuJtgJaF2CvTA9WToB9awx2LGlFHHfmwkB5wqvVam6D9eVLzOWvaR6onQN9iW4CWqX8s9u5Z1MjtpTAHdM/pMAJnngd99K8mQDcQDbqfpbMoqF1/ANs7r8vlG0wndknVPUm77/0m6EZFyxBbHr5zqNuyVLIAVDvxEWhOhj7FaKbae3YgFvRT+2Fwe2ZvdMww1yrYDpoWYPJ4KYentdhni6qg7xotBx9RdqMjLDwjoSZpxkLs9UOYZrK9H4O+br6wQ8dJndkU4hmJBpInFyKFaInUieyuF4eaQT80yoLvjmAt2+sN5FAnBT6cF/I8LUZDc5/1IaCvZtxQhFoBjA5WVFSFO0B7KliSkClCJ137gWpfgG66lsEcQeUiq9w0NFVWaE/jPkuas2GvD+tDmG60HZRWSCB24F9PwTU5j5E8ejbSPdOsqH33swV927QIsViGXAHogU6eZGsSSAbtKUJ70Yk3T8eiZtDvmrWMMBHu+Bx7Tt84L7l40nQWdC/xw3ZN270S6yMfrdDZKg52TStR/TTZo+RISRdMNbf2uk+5CFi3XeYCfCeDK08p87wB7YLbSYm2IiCXWSpqxd29yqDbDB6wV9qYVZKThiFgU2qxoH0us9LPLOg+iTqDbpQ0TeChiR16blb70W1xWmrEXstwYlpjR0IdI3UG/dASovnMvctFS74qQMfQ24gumeaYwWa6t6Luk6hdm6QFdz7AXo455tMVDW5p3FQXYRv/z0QP+vhJQFdLGnWMDdRE62lOnhic1cwW0N5nQUs2LIjuXwno69YozUznUaU8QC9bs9ikj/WIaRL0WNHx47WAfmhN4WhvgcrjpDp+N5dpLrK4FWbSoRDddV5AN15NinIzopmFZYHw+B20Ah9pOlvSkugY9Bj0XUNHWu42g3wUVYvvUhOzMqInphmyySt9YrujnOiaUguYW+TK+zp4H4tdaevWErKmi8Ch3i4l8D5BHtzHKwJ93aJop2nFnrrnywIQ2/2/BU3pRMRhie47+uwE9FO9KQV1/3avRfaE7MmVJtAXJnpot6PwpMnldRw+XHXwwHyh0vj0Oug9I3rKKcwCTfZfrZIRSIwcie4YPlzrZXKQpa3VVuAOGMxhOV1KIn6aVqFYJUacAjRtOseVuIpFQHXwoN75+BYJviSAbWnNpuEO0FyB5/xNVVYyeDHgxS//RNDvqxnOJ+/NAKE9wyJD0q3PGwbtqQLobeuAWSZldwL6Xb2iue9v+zO6Y0iHhsoDnbXPr8q06iPHjRjrUrzjrz8OoFsvdUSnV7oUNyqFMHvjP7xUTfd9XokMO4mjTwEvMf0qgn6oVbQwvVHSkkPiY6hz9EE3FPzHUyFeNjsEecfqGCryAXRLjB5fmCn7QsXR6nbYKwbNjrTIKj3buxSoe0+gL2uLb9lhMUZaCy3u7uJMedww6JRZiGRRR3JJPQU7YrobQNdGPN3LKq/sYHXo5DzMUPYFgf7tXFtK5z4rI65EyokcqAfQVXaJL4E19+xaPWPYfhqkLkwn0H+zne57mwxT8uZATahXriZM54Ocxb3GcqGS7lnMDR+/MmitC42o2XVkyEOgdhVhGnWCRrrR9oqDvFmB81Zhuls9guacUgQPcR3k8+j52dXlFolxrnRLAfQaOcC5qzBdbJpAn5fi8LQIqR/W5Y+f3eqpWtFyhXQYnSKTFVi1NzsdPBJob800L0LOhd5Gjx/d/txijyaLi3Y610GXmn2LotMV1GQ9ytadWDxZhCKQV26vmzaKduP7ibhqmZ+/5bLNWCP+oXo+V9PBiK2ih+zibloUjeVVjvmIk96rOkvSAjpF6FHAI/NPT18PGsEOLOnWLJiGtFwjMU/SawL9d5JGZ5odydYR014hR9BrrPDRODqDmm8KIHXMhUuSFtA6Hlb0Dewq5IDt7rDKdbAlLe+gCRv17JznAw8xkuHoeJBGSkNehRny8Lga64F0L6IegAN7lyNZ0pxi2ltiBPpPf262K7KTZqYVcQS9z3rwVWwy0mbvj8a2vcJd6riM69DrbgU5/mzv0nKsBi0+SXbuJ66v4hO/s6E/M9O/jZkmVXeeNW1inruuGK/6H3VX0xrJkUQLcmfYayZjtNcsPPQ1oUD4OJbVbh/H425JR4F2jK9qJHQ1CJv92auujM+srKrMktzS1A6YYWF4BNGR8fHiBcQ8NDXyOhBpeI6pT7cA+tZLyH2tcrCzU9GuBDRIE8VHUBw16UTrn8Qcl7n0VyTm2la+h/FdiTWAeAyLQCt5cT2555f7OS8iGPr80H1UiXR8BKOlJeAe9Kf5Z0XKE4ldcJRyhPFb6J5h6PPdr47dw2Kt4iiJVribPwsoNI1RnB/MOGhq+HxDnz+5dCtNjQHExninbd08ztGjTYPFrCRHG2LQVE+yVOhA0FvLIxbxGqqCtgQ0dmYMqI2EVJ6IdT6Xho93RB/9Mhga2r7Uiu2DFPT1HBU9hEQxE+nRsVZ5TmJ6uiMm5q2VTceYcvCTkrrH9TTPGAUdtVN3YjFyAeeAejS0Q7a1svNPnV1w6SpLw10vMekUTXTgGpvlhj44NID+ovq6FvIlazlbKgQdKM1Lc/9AS7NmyShL/ggB9K22M6T9XjyJRaANal4Yo0pwbJ4bHMItfAoDCgT2gwvr9SMOVLzsI/4EesrMEDuE2i7tVNfyMge/wb+2Yi/yljph0I4mS2dNPfFDNPIChJbbjUPZZ5Tgf+yEUudua/VMyHsaauV+h3Y+/W+S51uMWZZyDv691huot8lwFn978LK4QtBwTIFecG1oqLGWPSmnf6SXlNijsXFAaXTW0HaK1xHVXGiUxSphgVZQm9rNyv9ldn1vXRI7YIwF2ZKvcI/QsKWNujuFI4r3f9CDVvxth6AvLT2E2AqzYOkRW0/xOoDJpjIlEuzo3v9Fpwefta+99Zp+R3DHv4nUH3Tc064/JND/fakl81sHtFJOlfrpPbGWykCTfrQRcluN6HSE7nT9UpvxZ1aNweMz7m3OlWd92rBHDwWKAPNLgD6zCV3Q8yjLVvm0uP6GPceGVvaewt3pevtCm/Fg55Y5sDw0dKPGHl9iMVCIp+dunvx5/VLr/Hvrkl5H9GdKmfK4x5dYQKAU82hyaVEjPRP05glcq+kzEKOjT/sxU8+075pMN/pfLyOcsNlbO5hlQftO9KQLQUfaPIY7KX8X7029hLzD5qE9QG7dIHR4T9QfVwzasHBm5MDSkU5Yf/s6wLF52O/3q3ZP+x77/n8TX2/LAX3eYj3Lnegy0AGHFTRhUX1/0091JOjtA3Ja08368a+ndNCSQstGjty7OUNn8mljmO2YZtJwzJBB95AXfMBFibAdc/65i171jGOcEw94w7vg8YIr/5iW4PWw1BkXnQ6jIdXahS66n/Lp65GhkOEVJ2Lemd6jGfTZIhuDf/Bwlrvo2CSd+ZqbXN8A02h1HuRg61MZEPaLPMMD7Z+3FETO4aFz58pBG5oKNSmPDR6WdwL0filiGGCl60KAGVxkJMHLWzpm0aFJXm9YMVwzaBnh4D+rWciwZAi7vikVnUKGr3IPg+EjhKbRTTz6GUbQ0p9XjLwIN5KN1cgwLldM1oa5riks6kF211FWGujczVcCvSmCmIHskcam99/SWOcqLB04j84IfXZ8oWNhdG5hpyyhomMNjjm1mykCHgdyDJI/I5f2Aoz8DqDP0JdXVWZ2cf/NodoSp0pcF3o7H/IeMwtOaskJGIL9lVysPi4Fln2tsdPNSM6TiK/kp6HLmQtsZA2PkmHCRKdyJoHux00dnblVO8rQoOFUqeBx+aR7d/gnyJEhNA1IE3MzBLeft7oDB8G9ap8swLGl3SzokMn9k14H8JR+QNDLnhVMlJwisuEDLhgdfs6xm89B0qKR8xPSdnQIyL1FQ0vL7ovin2+F4llSGeLG0EQ5mwGNW1mByaRBXhd6Cnh4HexsQYTG5zBaWJPvEDP6xaxTIwsBWrpNJu2gPXBsViRvYXnYwAU4lxI7aJ5VGPIuglBxx/SZeR0dbSogjfU8TaJXZZjJ0pT880sI/EwLU7jZH+JVSFi7+tK94eABNNbDz3C/xEF8XKwehmkaCLkyQ0cOk1KgMSJ+RAYK9EmBxnreLgjSDn+DJJyj+9HAkxYDgInvpDkPqQKNXELt0yZo/AONdbPAocmVUZzNM+0HA8fo1DAH2tAKKvTtGiXmwvMV6EeP1FirmToWgh0sZ8npG+ZIriRwRNrm2tDxtwDTlSa5LAQLcDDdSWNy4UsDzNc2xRwzDxt7Br4I9XeRaxrrQdxk7/SxS5D5CaDAmUG8Kgl46NPC1NYzX9CNDDqzliaCLLFnKObhsWo8RdyDvlyQ3GF95WBTwekuacqPnvu+bw6LfYGSf8lUohWFSDr4IYL+Up+TOgrTpI2C8zdevPHTtaz87prdb/AeEhdF0A2COKMAoCegzniJx/aMS8UCRKBzZaA/q76/kRQJ6v4f/gss5/0CvPEtaTFAJ1ISsQbwhb7x9J03uGEbQq7ZIeb27yLoRcUKQpeLhswnBRP7khjNoEFVCd9vZWgSvvgaO44L/MKB5BZbWo5YBDGz7HNPoK+wu9sMCAfMgA0I+lL/CFdF76JvxXakZN8xT6k0Rh8exMOObQdJXiCSFY/AaR8cSfBfymOzKAzhYdGZP5ONY5HlbZl3/OcA2kA126T+oY8oRNBn1UmpZ+FMfFY8M7qJW+WL3ePDAfQNiTJo/msQl59N5GYnoKu6NK51yYjFAXHXOlecdxzelgPoRwzOgnAA42TkG5gOQe/rs2gYrmScgyoAa0dIEtkwfQD9U2BFF9XraDq5DLIItFf5klYoos37+Ya0jngH0J9JwrHh861xE8SQjjuCTpqk80GbtFxa2btjGxNRyRdHvAPoC+p1pFI/ICMNutYEelHXA7WgZPvOxgaNxahXGPHO+2V3bnfwS0i0H6DPh0gdyObRq0k7Q36U1OBQZeE76Iv947so04V0ML4bGbqG+GsoytyD/qWoaTfadkyqLOD+1H0fe9DrG7jvm57ZM8w1RktfJh69mq0LIY12Ti9HYlJqmZVS+N1H0I+6Gy3ut+K+fUDQm0WhA7ebxAgO9yscse9KcYOK26eQtg0M0rpZu4osXTnLciDHxjWtnB6WNzvodwigL1KGhCFqB6uELbC0mHVi6KC3EPkzrhKz/QCgr7qQku9QCEoo3y1xjygT4FT7zqox7Rjtf+p3GEX+FN2A9kDoaoUZgl4VGtlD4FBtUseGtrNDoczvsAe9vmm0ihxq9cl1TgK9L44dMBHCED2I0Z5HLOUfySn+BM9hJ8azuKVslvq0w1kWadg6vdOJbY6aqiWKQPagf1ayxphMI203LPdphzW4S/ab2LdrXvD4HgLoq05lHbAQadRS5wjo1dwgXIwM1Qa7AFLjHfcEep1c90WpH3m1QoHez7/ijhzE6QUnnhwil95WujSAfuywZOFjSFxpmUXu4UliPO1HWyfe7SqPVrqmn9RZUaMsvTBOOyqzvOjwQtQAfrRztbg/Cl3Tq05efkYBGqNWWGBrsLwo9GjpZP/NObZ0rXfcyeMG6pY5CdDI9aZAoFflyRJaWq90WhzO1j7hUSCUQD+Saxih1Kcv8ihLF7SkQeNTtaNJCsrOMgbz3QMJ+kJsc8JupNGCW6HCPTxylWDU4lJqJsmy+brf4Z0Cve061Qozw5XOdY1PI+VHDO9F1qGW3yr8wyUHO27ookkHmJPTQsrS+3nfoKDntboZ1VjjC0Nz3kGgP4srClnFzIx77KeZd45JEi2tdOJOSE0/WnQ8NOirDnOljveFwjToueiBkugq+cBCqz5G25P0nsvupjNS/W6ob1YM2qOVldIn7bAwB72uoH3KOwZHaD5xRcjCpCFj6VXxI84/RZXgoWBA7eeGl3Ou4IpaN3ayotTSHlrSfF5Ic8K8XYj64xB0nzSxHw/cozJOeyoOU0NT68DWeYfL3Si66IRyZmZtVsfpaUoYSAQnQt2WiT/TTPSx9D9zWOlG5Bu5M/cMel9gaBQn9Qmzw9WXWGjoDOj1z50RdeHA1GXugf7sM9MKReuofFf0sTCxUmU60GXIrXVW5NOO7oSo0CEUd7F9UJnfZa9BCSE2kxMAmwftxauS7rBwpgSTlurHMHvH9gY0BvMnwYssDfebfEsNGsnN9EKAsupd+X4c9MXURnUE7eYfbypq9YqTdVKAss6hT6YuBj925NQjPu0KH8PBhRDioxQRM7OYR0BvJzbuC9wjPipgb6FtJgjSJHJWE+3W07eZL0aVAootjUldIhIMU6EFLRq3njso/edzfdpxNS57/0R0ZOndUt9Yz17B3l2PXCUTlt5PlCs8WmkHZHTMoKti3arkdPf25hmWxmZpH+2sbHAs/E7uy+6Nb6/zehwFoNXum38e3N7K98VH0nd/m0WWdmLCcjjjerc5P/zBwi7+bYN/vYNv5K8PDw91l913v1wvcg/f0mmhg2PcTe6Nb2e2yte15+ifYszfv1///v7pD39zoIFmjKXLHOjn/LWZ/r+Tb9rSoHkNPfR/EnTdRvJoPu2ZQI/B7v4fO3T/UqDxIhJYuuUTjG8aNO6/Yb3yDYDGHRbRcXzroD0xSls6pvYNWNp5wfzvGzTfhE97XheK9Og3DtqTS0tJhm/Bpx3p+0Na+lDxHR+0a0U9C8e+XF0v5pXcA9d9Dz1/4kS8ZdCAGWsAcXLjzYJ2UH1rIoo6x/ImLY3UHy+W9jzJyBXw144NGnjGyDcQXaVIyfSoUPqCoOvy2o2bIivh7cjBsZ5ZS79oEVAC2uGlvYHWT+zgyYnFWwHtRGvJk1YA7zcJ5rx/I6BFpZIqSVg+ETLbonkFS3u5IZmy/n2JVMCRQbu4x+I9sWFp7Z60r+f5d0d3D3pd/ODYnhdDIf9WLO0Em3SgEgZPS9EOy/EtDbJK6YSFdkH8/FToqKBjt5EErCSJhvWgCgh4R3YPav77gY4ECwS/oehBUi58dlbE6B4ybAzNevUrWJoOTyVLqGPy4q8K2nGzQ89naUESYt3bcg+H3LvBMAtV/stYjsfqmjrqSftU0MWSU2ckt04eHvavVwR4DngSMyiExSH4gMjm+q715vYVKxcidqjLUyj1iZ4hPRoZX/51QDuPGgde7yhT/h8t7bPkqc1rgMbhihO0XbUuhEJQKrs74QHRj6/jHq5l4DpsYBo94IPd8z+1PT5o2gZvBZ1Uj5QzmzeSPLX78VXcQ9CrUh1YcgkN+4P6p17lh0haI3JNAaTNPBHp3Qjja7fzRwYNozfvtYocK+bnN5z0v3x7fEs72GMZbN6gMoofPOEn+l/+9bigPXdIPTakKTpjjObdaunS4l++PCpon1jatk7zMr2T4jn/L+6KVhyHYeA3WBT6LNPlvmOLQ96Phn5HF0N+/zatJctOmotCrfTNLHgH4ci2rJkpyWJHgfZMrhB+lxuW9Fc5880SdFYJE7rXrG1A0ijgZmr/FejBtGqKUnarbFUS+u3zO1asZhZ/6iwuASCzs2fBXWFNvFC+uxwE+g4id6SYQ6l8h+6dC8RRkQ7AYJ8xxsockHgsuFRJPyrSQSTorI0iGPfyaliv6VM5VW91sQ2Jo+C5X9AXBenyaohuK+i2kX7kAl59vCOWwluy0Lmc6tss0g8isAOXlLwwrmBW1mLrYzWVWaSvxGCnqtKsbuDeV5ViudLMIt0Tr7qW6kZqkV6RCD4VKd+swvSbqLk7s1IKYInu16Fp6WXoLKf6LpjVTUEH5EjL9zdRc1yj7EUxFRqCfryaM9FX1uCsx7zW8X/OU11LpZG2oK/pJbz0j3GOSo6wSgWPbD2J5Um7LegePLV1y69QPAq9tvDl9QGRXByrekjLqinbggvx+XzmAPe/boOJkDzl5EedwFteAoaXW3U6L0lHBbaMR1jvOhhjGHG21BuDvjvxbi9uWQ7cXgrAqTnoIZWk5Vkp25okgrUOdGwP+i+/3Bf2D7lQqv6F9qBvzpcXlnRMyqZkqF4dzUH/pqvKwDVZRwJv5HpZhuagp09xJkCJ+Wy3h7fXHDS5PxemN0mTGfSc34sN6MkO1Ut1g5TydmgyENmwPejbjxOUPU/y/nSSBn2gLUAHrCxvSLNDv6TPwQx077KFK4hroX5LjHagAy8QEgxw+7bwUzAEHdAJNUc2JlCnu33t9Xs5VKxJT9QAAACySURBVPck3556fuRZWrOBtyCcrQzvRE1mCwh9vovWoIeepS/48A/qj9Aa9NCT7ozw2kNlhjYHPXm6pqLSnjNpDIeADoQa9dTqlKAPAB0mM1rxmgzajfAQ0F0YHeVoTaAvw4GgAwVbJ3vXDQeDTrC3hxpiYzbzxmH/sz3KsTkFe/NwVoB5U6mx4I2r9prRr8d4jDZkd3V5cvRLyP2fsfvgP/ow6Ofw9tRfoF8MQ/epmdPwH4V+/Db1mLuGAAAAAElFTkSuQmCC;" parent="1" vertex="1">
          <mxGeometry x="795" y="90" width="80" height="80" as="geometry" />
        </mxCell>
        <mxCell id="WDt8Z69bVPwjooa2CbTY-16" value="File Watcher" style="rounded=0;whiteSpace=wrap;html=1;" parent="1" vertex="1">
          <mxGeometry x="765" y="182.49" width="110" height="40" as="geometry" />
        </mxCell>
        <mxCell id="WDt8Z69bVPwjooa2CbTY-17" value="" style="endArrow=classic;html=1;rounded=0;entryX=0.333;entryY=1;entryDx=0;entryDy=0;entryPerimeter=0;" parent="1" target="WDt8Z69bVPwjooa2CbTY-2" edge="1">
          <mxGeometry width="50" height="50" relative="1" as="geometry">
            <mxPoint x="890.63" y="80" as="sourcePoint" />
            <mxPoint x="930.63" y="50" as="targetPoint" />
            <Array as="points">
              <mxPoint x="880.63" y="90" />
              <mxPoint x="930.63" y="40" />
            </Array>
          </mxGeometry>
        </mxCell>
        <mxCell id="WDt8Z69bVPwjooa2CbTY-18" value="&lt;font style=&quot;font-size: 18px;&quot;&gt;Validation Pipeline&lt;/font&gt;" style="rounded=0;whiteSpace=wrap;html=1;" parent="1" vertex="1">
          <mxGeometry x="600.63" y="-210" width="220" height="60" as="geometry" />
        </mxCell>
        <mxCell id="WDt8Z69bVPwjooa2CbTY-19" value="If the&amp;nbsp; bucket is not empty" style="rounded=0;whiteSpace=wrap;html=1;" parent="1" vertex="1">
          <mxGeometry x="970.63" y="33.75999999999999" width="113.76" height="40" as="geometry" />
        </mxCell>
        <mxCell id="WDt8Z69bVPwjooa2CbTY-20" value="Actor" style="shape=umlActor;verticalLabelPosition=bottom;verticalAlign=top;html=1;outlineConnect=0;" parent="1" vertex="1">
          <mxGeometry x="720.63" y="-95" width="30" height="60" as="geometry" />
        </mxCell>
        <mxCell id="WDt8Z69bVPwjooa2CbTY-21" value="" style="endArrow=classic;html=1;rounded=0;" parent="1" edge="1">
          <mxGeometry width="50" height="50" relative="1" as="geometry">
            <mxPoint x="770.63" y="-80" as="sourcePoint" />
            <mxPoint x="900.63" y="-80" as="targetPoint" />
          </mxGeometry>
        </mxCell>
        <mxCell id="WDt8Z69bVPwjooa2CbTY-22" value="DS" style="rounded=0;whiteSpace=wrap;html=1;" parent="1" vertex="1">
          <mxGeometry x="690.63" y="-30" width="110" height="30" as="geometry" />
        </mxCell>
        <mxCell id="WDt8Z69bVPwjooa2CbTY-23" value="" style="shape=image;verticalLabelPosition=bottom;labelBackgroundColor=default;verticalAlign=top;aspect=fixed;imageAspect=0;image=data:image/png,iVBORw0KGgoAAAANSUhEUgAAAgAAAAIACAYAAAD0eNT6AAA2VUlEQVR42u2di3NP5/7v/TMbnUoyISYlU5chMVXGhDFiDKanOp0wc4T50Y5LB+0ER3CKnrqM0MP2I8zW+jWSg/pRlB4lo+G4bfdLg7rGNRHP8fn2ZJ+IJN91edZaz7PW6zXznt0tyffyfJ/L67vWc+mkAAAAIHF0oggAAAAQAAAAAEAAAAAAAAEAiCEvX75MBYIpV8oWAAEAQAAQAABAAAAAAAABAAAAAAQAzKa9y7tO/j2qv033Xjp6j04fo6PfbfnvTh9b5/turxz9vK+OHs9JWTj5naamJkevt63f81qubuq/2+dxWh5OPj8ABAAilQAvA1JUf+vlfXgZAP3+rpfX4Oc96RyU0glA1GXrRYSifv1+XzMAAgCRC0DUf+vkfXj9Vm3K77otCz/P71QggigDN+9Nhyh6ff26y8VN3QZAACAUAXDyTTHqv3XzPtL9rtPLv34GBD9XLJwOGH6e36sA6CwvN6/Bbbm6+Z0gygUBAAQAjBaAtjrXdJ1hVH/rVwDcfGvU9Y3QyyV7P4OXm+f3cwXA6e0FPwLQ0d96uaRuQt1AAAABAOOuAjj5bxP+FgFAAMISAL91DgEABACMF4CWM7Db62hN+VubBMApr169CkQA/JSB3/cVpADoEF6uAAACAAiAw5nNpvytn8Ev7DkAIjhePocg5wDYJADt/a7TcvUqUcwBAAQAYk9H3zzTDUhR/a3TgTqomd5uftfLzPYgVwE0/6x5ANW1CqD14+ouW10Dqgl1AwEABACMvArgtPOK4m+9LCsLYq23l/fh9l550PsAeP2m6/d9ORELXZ+Zrv0ZgqgbCAAgAGCUALj9Wdh/66fz1b0ToNtO3oadAHW+Ly/lpXsnQB07CbqVLQQAEAAACFXUAAABAAAEAAAQAABAAAAAAQAABAAAEAAAAABAAAAAAAABAAAAAAQAAAAAEAAAAABAAAAAAAABAAAAAAQAAAAAEAAAAABIiADU19erHTt2qBkzZqjCwkLVs2dP1aVLF/W3v/2NkMRG2oC0BWkT0jZ+/PHHVFsBALBeAC5fvpzq2DIyMujwCXEQaSvSZqTtAABYJwDPnz9XCxcuVF27dqVTJ8RDpO1IG5K2BABghQBcvXpVDRkyhE6cEA2RtiRtCgDAaAE4c+aMys3NpeMmRGOkTZ0+fZoeDwDMFAD5lsLgT0hwEsCVAAAwTgCePXvGZX9CQrgdwJwAADBKABYsWEAHTUgIWVS2iJ4PAMwQAFmuxGx/QsJbHcASQQAwQgBkzTIdMyHhRdocACAAkSK7lrHJDyHhbxbEjoEACECkyPa+dMiEhB9pewCAAHD5nxBuAwAAAhAecogJnTEh4adwRCE9IAACEB1ykhmdMSHhJycnhx4QAAGIDo70JSS6o4QBAAGIDDpiYkOysrJUSUmJqqjYomprf1d3795VL182piL/Lf8mP5Pfkd+15X0BAAKAABDSRgYOHKi2bt2qnj596rhOy+/K38jfIgAAgAAgAMSidOvWTa1Zs0Y1NjZ4rtvyt/IY8lgIAAAgAAgAMTwDBgxQZ8+e1VbH5bHkMREAAEAAEABiaIYOHZq6p68beUx5bAQAABAABIAY+M0/iMG/pQSYdiUAABAABIAk/p6/zsv+Hd0OMGlOAAAgAAgASXTWlq8Nrc7LcyEAAIAAMPgQA5b6+Znt7xZ5LlOWCAIAAoAAkMRG1uyHjTwnAgAACAAhESU7O1s9e/Ys9HovzynPjQAAAAJASASRrXujYsqUKQgAACAAhEQR2b8/KioqKhAAAEAACIkicohPVNTW1iIAAIAAEBJF7t27G1ndv3//HgIAAAgAIVFEjvONCnluBAAAEABCEicALxEAAEAACOEWAAIAAAgAISFNAqyNrO4zCRAAEABCWAaIAAAAAkAIGwEhAACAABDCVsAIAAAgAIRwGBACAAAIACEcB4wAAAACQIiXrC1fG1qdl+cy5X0DAAKAAJBEp1u3burs2bOB13d5DnkuBAAAEAAGH2JIBgwYoO7eDW5jIHlsUy79IwAAgAAQ0iJDhw4NRALkMeWxTXu/AIAAIACEtLgSoPN2gDyWPKaJ7xUAEAAEgJBWcwLKX0/W87M6QP5WHsOke/4IAAAgAIQ4XCIoa/bdbBYkvyt/k5+fb/z7AwAEAAEgJM2OgbJ1rwzsJ0+eTJ3kJ0cJS+S/5d/kZ1OnTjVihz8EAAAQAEIIAgAACAAhBAEAAASAEAQAABAABIAQBAAAEAAEgBAEAAAQAASAEAQAABAABIAQBAAAEAAEgBAEAAAQAASAEAQAABAABIAQBAAAEAAEgBAEAAAQAEIIAgAACAAhBAEAAASAEIIAAAACQAhBAAAAASCEIAAAgADQAYJVUP8BAAGgAwQEgPoPAAgAHSAgANR/AEAA6AABAaD+AwACQAcICAD1HwAQADpAQACo/wCAANABAgJA/QcABIAOEBAA6j8AIAB0gIAAUP8BAAEAoP4DAAJABwhA/QcABIAOEID6DwAIAB0gAPUfABAAOkAA6j8AIAB0gADUfwBAAOgAAaj/AIAAxLUD/G7fKJLgIAAAgAAgAAQBQAAAAAFAAAgCgAAAAAKAABAEAAEAAAQAASAIAAIAAAgAAkAQAAQAABAABIAgAAgAACAACABBABAAAEAAEACCACAAAIAAIAAEAUAAAAABQAAIAoAAAAACgAAQBAABAAAEAAEgCAACAAAIAAJAEAAAQAAQAASAIAAAgAAgAAgAQQAAAAFAABAAggAAAAKAACAABAEAAAQAASAIAAIAAAgAAkAQAAQAABAABIAgAAgAACAACABBABAAAEAAEACCACAAAIAAIAAEAUAAAAABQAAIAoAAAAACgAAQBAABAAAEAAEgCAACAAAIAAJAEAAEAAAQAASAIAAIAAAgAAgAQQAQAABAABAAggAAQDx5+fKlHgGQB3ISBIAgAAgAAEQz4Lsdkzt5eVAEAIArYAAQHa9evfI9JjsWADpAAOo/AJj3Td/rOI0AACAAAGCpADQ1NXl+LAQAAAEAgAReBUAAABAAAEigDLAKAAABAIAYygACQAcICAD1H4ArAO4FgGWAAAgAAMRj0PckAHSAANR/ADBv8PcKAgCAAABAwr79IwB0gIAAAEDMRCCQOQB0gADUfwCwQwi0CgCTAAEQAACwQwYQADpAQACo/wAJlADfAkAHCED9BwA7vvVr3wiIDhCA+g8A5hDKccAd2YWOyYFRd4CEJDkAYP83/cCWAaZ7Qr8SQCdMCAIAAN4EIJTjgNsa6OMwCZAQBAAAkngVQMtGQAgAIQgAANglAwgAIQgAAMRQBhAAQggCAMAVAASAEIIAACR10PckAK2fIC47ARKCAACAzYO/V1gGSAgCAAAJ+/bvWACCMA8EgBAEAAD0iwBbARNCEAAAbg34F4CONgJCAAhBAADALBnQIgBOdgJEAAhBAADAHAnwLQDpBnlWARCCAABADG8BsA8AIQgAAJhFKMcBIwCEIAAAYO43/cCWAcZdAACihPoPAH4EILTjgL38nA4QgPoPAOZdBUj8ToAACAAAJFEGOoXxJHSAANR/AAhXBrQJAB0gAPUfABJ4BYAOEID6DwB2D/oIAB0gIADUf4CYDP5e6aTzBdEBAlD/AcD8b/8IAB0gIAAAEDMRYA4AHSAgANR/gAQLAQJABwgIAPUfIIEyoE0A2jMLNgICQAAAwKzB3QmedwJEAAAQAACIsQC0HvTbenImAQIgAAAQUwHo6MkRAAAEAADsAgEAQAAAAAFAANzy3b5RJMFBAAAg9gLQ1hyApqYm39sRIgAEAUAAAMAZTjYAcjpZv5OuJ0xqB8ggiAAgAAAQWwFI96RJ7gAZBBEABAAAYnkLIGgQAIIAIAAAYLgAtDX5DwFgEEQAEAAAMOdWgFYBaO+BmQOAACAACAAAmDP4uxmTO7l9Iqc/QwAIAoAAAEBwg7+Xn3sSAL+/gwAQBAABAAA9AqBjTEYAEACCAAAAAoAAIAAEAQAABAABQAAIAgAAxglAKHMAWm/3217k9xAAggAgAAAQjQRoXwXQ+kHZChgBIAgAAJh3KyCQfQA6EoGkd4AMgggAAgAANsJWwAgAQQAAwPJbAV6+lPu+AsBGQAyCbeXvB8arnTVfqMNn16iTV/9DXb59RN1+eE49elqnnjfUq5dNLzzPGwEAYOAPYSdAp0+GACQ7/37wv6h9p/67Ontjt7r/+BqDOwCA7QLg5exhBCAZ2XzoE3XkXLn6494p1fSKAR8AIKzB38mYrU0AggIBsCvr/3OU2nWiVF25/b9fX8ZvpDUCABgkAG7GbQQAAXCU/7lvtDp05lv14Ml1WiAAAAKAAMR/8C9SB//P/1D1z27R8gAAkiQALXcCRACSJQA7j89R9+qv0OIAAAwTgFCPA2YSYHIE4N8Pfqz+WbdfvXr1itYGAGCwBLAKAAHQlj21/009fXGfFgYAYKkEOIWdABGAVDbsH6PO3PhffOsHAEgICAACoLb+UqzuPPwnrQEAAAFIf7mhmeZJggiAnfmPYzO45A8AYAk6b8t73gq49c8QAAvv959YoBoan9OiAAAQgI6frL0Bn0mA9kX27WcnPwCAeAqCE1xvBIQA2C8A/3lq6etbNy9pKQAACZYABCBhArDn9wV88wcAQAAQAAiW27dvq+rqarV06VI1adIkNWzYMJWXl6cyMjJUly5dIv/8CSHJjfRB0hdJnyR9k/RR0ldJnyV9FwKQZg5A0jcCgjeRfQRqamrU/Pnz1aBBg+hkCCHWRvow6cukTzNljxQjVgHo2AUQAYgP9fX1qry8XOXn59NxEEJiF+nb1q1bl+rrEiUA6Z7UDwiA/QP/suXLVHZ2Np0EIST2kb5O+ryoREDnF3J2AgTPl/orKirUe++9R6dACElcpO+TPtDm7dMRAHDNtWvX1OjRo+kECCGJj/SF0ifGQgA6muTHaYBQWVmpsrKyaPiEENLitkBVVZUxtwIQAARAK3Lmw6KyRTR2QghpJ2VlZam+0pZ5AAgApKWxsUGVlJTQwAkhJE2kr5Q+M4zBv1k22lqqr3UVAHMAkjv4FxcX07AJIcRhpM8MSgKcbMYX2E6ACECyLvtPmTKFBk0IIS4jfWcQKwQQAAQgFMoWl9GQCSHE65yA130oAoAAWDnbnwZMCCH+In1pmAKgdQ4AkwCTh6xpZakfIYT4j/SluvcJcDJZ39MqAAQg2cg9Kzb5IYQQvZsF6ZwPkE4APO8DgAAkm4qKLTRYQgjRHNk22DQSvwwwLpkzd47vz+LRo0cqNzeX8iSEEM2RvlXHAUJOv2wHehpgy6ViNh8HHJccPnzYd8X6etnXlCUhhAQUOUVQ1+X/9sZd7RsBdXS53+8qASqF/+T0zHn9GTT6qlRiphzpSwghwUX6WL9XAVqPxS3nFri9Ld/JrW04WYOIAISbySWTfVtleflaypIQQgJOeXm51omAWg8DcjrbEAEwJ5s2bfI98z8/P5+yJISQgCN9ra4VAX4n4yMAMci5c+d8VaKamhrKkRBCQor0uVwBQAC0bDLh9/jJ+fPnU5bJyqs2QrkQElKkz9U18Dv9WSBzAGzfB8D2FBUV+TbJgoICyjJZg7+bfyeEaM6gQYPsXgWgYxMgBMB/Zs2a5Wvwv3WrjnJMpgC0/vaPABASYqTvtXYfAB2DPwKgY0bpWl/lX1VVRTkmVwC4AkBIRJG+l50AqQi+Ul1d7av8lyxZQjlyBQABICTkSN+LAFARIp1NOmnSJMqROQAIACEhR/peXbfgvV6d5xaA5bly5Yqv8h82bBjlyCoABn9CQk7hiEI7BIBJgObm/v17vgQgLy+PciSEkJAjfa+fVQB+f8f1MkC/aw4RAP15/vy5LwHIyMigHOM/ya+j+/4d/ZviSgEhwUT6XmsEQMeTIQD64/cWTJcuXSjHeE/yczrz/1Wa/yWEaIz0vQhAxB9C0rGx4WRmZqrt27craPtohxb/2zItf6ba+P+t/0518DgAxiB9gfQJNvZlCAACgAB4zLTp09STJ4/pAdsXAOVRAFQ7gz0CAMYgbV/6AJv7MD8CEOpWwAgAAmBi5GStU6dO0Ru2P5C3d1Ug3VWCV1wBAFORNh+HE0y9omtificdT+TnBSAACIDfvPPOO2rDhg3ajtgEAEPt9nUbl7YubT4OfZcfQj0NEAFAAExPcXGxevDgPr3km9/8nX57f5Xm/wNEirRtaeNx6rOiJvE7ASIA8ZpZ26dPH3Xs2DF6S/eDOAIAxvLbb0dTbTtu/RUCgAAgAAEsr/l25beqqakJAXjzSkBbVwWczA8AiARpw9KW47pc2Q+h3QJw+mIQAATApIwbN07dvn0bAXhbBrz8L0CoSNuVNhznPiqIwT+wSYBefo4AIABRJjc3Vx04cCDJAuBklr9y8HsAofHzzz+n2m7c+ye/g3/rf3M7Jid+K2AEIP47bnXu3FktKlukGhsb6FkBDEbaqLRVabNJ6Jv8CEBH/8ZpgAgAAtAqI0eOVNevX6eXBTAQaZsjRoxIVJ9kjQC0JwG2D0AIQLL2387pmaOqq6vpbQEMoqqqSnXv3j1x/RFXABAABCCCzJk7x/dJigDgD2mD0haT2g8FIQChzAGQHZmYA4AA2JwhQ4ao8+fP0wsDRIC0PWmDSe6DvNLeN35WASAACIDLM7m3bdtGbwwQItLmpO0lvf/xIwAt9zlhHwAEwMryHz9+vBENcerUqerx43p6ZoAAkTYmbc2E80NEQtgJMOEDkF++2zcq0the/rLsZ8bMGUZIwMCBA9XJkyfppQECQNqWtLGo23mPHj3UkSNHUrex43AcsJ/5eZ4nAbZ3LwIBQAC8lP8333xjzMmC69ev52RBAE1IW5I2ZcIJfgMGDFAXL1741+tCADw+IQKAAOgu/x9++MGYYz4//fRTdf/+PXpvAB9IG5K2ZEKbLioqUvfu3X1DTBAAF0/W3oCf5EmACIDe8pdLc6asB37//fdTp5ABgHuOHj2aakMmtOVp06epFy9evHVlIq5zALQLQEcPjAAgADrLX5YH9e3b15iTBVesWKFl0yuAJCBtRdqMKSf4yWtp65YeAoAAIACGlr+cBFY4otCY5Tpjx45Vt27V0bsDdIC0EWkrJrTZd999V+3YsaPd14oAIAAIgMHl//TpE/XJJ58YdbLg/v376eUB2mD//n2qZ8+eRrRVeR3Hjh3r8PXGWQCc4msOgGxEkPSNgBCAYMtf6pVpW4UuWLCAkwUB/h/SFqRNmNI+Bw0apK5evZr2dSdpEmB7Y3QnXU8Y1wEIATCj/NesWWPUEaFyatm1a9fo/SHRSBsw6QS/cePGqYcPHzp67QgAhwEhABaVf2VlZeq+nimdjaxWkFPMAJLIzp07VXZ2tjHtcebMma6uzCEA7ASIAFhW/nJfz5T7jM2ZPXu2evbsGSMCJAKp61LnTWl/cmVw9erVrt8HcwAQAATAwvK/dOmi6t+/v1ES8OGHH3KyIMQeqeNS1006zGvXrl2e3gsCoOkWAJMAEYCwy//u3btq5MiRxp0suHXrVkYJiCVSt006wa9Xr16qtvZ3z+/HdgHQMRZ38vMkCAACEGX5y6XIiRMnGnfE55QpU1R9PScLQjyQulxSUmJUGxsyZIi6efOmr/dlswDoGo8RAATA6vKXpail80uNkwC5RVFbW8voAVYj37BNu902YcIELUd3x2ESYOt/a+/nvgUgKBAABEAHctqYKVuPtjxZcN26dZwsCNYhdVbqrimHczVn3rx52sYj2wWgo39DABCARAmAsHv3bqPuUTZHdjNseQoZgMlIXTVpB87mMzk2bNigXXIQAAQAAYjRLNgTJ06ktuw1TQLy8vLUr7/+yugCRiN1VOqqSW0nKysrtc1wEFc5EACPT4gAIACmLoOR3ckKCgqMkwD5FrN8+XJOFgTjkDopddO022h9+vRRZ86cCew2RxwFIJA5AEwCRABsWgf74MF9VVRUZJwESMaMGaPq6jhZEMxA6qLUSdPayfDhw1OnggZFHFYBdDROOwEBQABiuxHGixcvjFu+1PK0siAuawK4Yd++fcbtrCmZNGnS69NAnwb63m0XAFkB1d447RR2AkQAYr0TljTyssVlRkqAZP78+aqh4QUjEYSK1Dmpeya2iYULF74xuCEAwYEAIACJaACbt2w27v5my0udTo4vBdCB1DWpc6a1g65du6qKii2hlQMCwGmACECCGoBc7szMzDRSAuRUNTntECBIKit/NOoEv+bk9MxRv/xyKNSySNJpgL4EIKj7/wgAAhA2p06dUr179zb2lsCsWbMCv/cJyUPqlNQtE+u87DR44cI/Qy8TBMDlJEAvP0cAEADTLoHduHFDDR482FgJ+OCDD9S5c+cYtUALUpekTplY10eNGhXZJllxvQXQPB47mUehZSMgBAABsO0e2KNHj9S4ceOMlQDZ0TDM+6EQT6QOmbg7ZvOhWc+fP4+sbOI8ByDUnQARAATAxkkwMhN6+vTpxkqARJYxiqwAuBVcU5fASpYtXxb5GRkIAAKAACR8Fqx0AtIZmSwBco/0999PMKqBI6SumHaCX8sDsn744QcjygkB0DAHAAFAAGwWgGa2bduWWoZkqgRIx1levpaTBaHDAU3qiGkn+LXc/Oq3344aVV5MAtT0hEkdgBCAeAiAcOjQISOXSLU+C52TBaE1d+/eTdUNU+utnM1x5coV44QpzgLgBAQAAUAAWnD27Fn1/vvvGy0BnCwILTly5IjRS1vHjh37+myOB0ZeMYmjALihk98nZgCyG8r/bW7dqlNDhw41WgJkV0OZu8DJgslFPnupA6bucCn5/PPPVWNjg7G3TNgJkAEIAaD83+Lx43r18ccfGy0BktGjR6s//viD0TBhyGcun72p9bJz585q1apVRpdhHAQgtCsA6c4gZgBCAOJW/i9fNhq7e1rryVV79+5lVEwI8lmbeIJfyz0sqqurjS/HOBwHHPocACf/zgCEAMSp/FeuXGm8BEhK55dysmCMkc9WPmOT62DvvN7WLFm1VQBkhz8nAqB1J0C2AkYAklz+O3bsMHZ5VcsUFhYaN9sa/HP58uXUZ2ty3fvwww/V9evXrSlT2ycB+v0dVwKg48kYgBAAm8tfZt736NHDeAnIyspSP/74I6NmTJDPUj5Tk+uczJepr6+3qlwRAAQAAaD8XSGnlvXr18+KWwIzZszgZEGLkc9OPkPT69mcOXNS82VsAwFAABAAyt81d+7cUcOHD7dCAgYNGpTa2wDsQj4z+exMX4q6fv16a8sYAWAOAAJA+Xv+dlY8sdgKCejWrZvavGUzo6olyGcln5nJdSozM9P6lSdx2QjI6c88CUBbD8pOgAgA5f9Xu5g3b54VEiCZXDKZkwUNRj4b+YxMr0eyE+Xp06etL++4LAP084W8k5cn1LkbIAMQAmA7cgCLbHxigwTI/IUTJzhZ0DTkM7FhbknhiMLUTplxIC4bAXX0/7UJAAMQAkD5t49sfGL6ZdvmyKmHa9as4WRBQwYh+SxMPomyOcXFxa9vfT2JVdmzFTADEAJA+Wvh+PHjRu/Q1tbSLTlFDqJByt6G7aYlCxYscLSxDAIQXv+n46p8p/Ye1MmT6LgVwACEAMQJ2bBl4MCB1kiAnCJ3+PBhRuOQkTLv1auXFVeL4jqBlK2AEQAEgPLXzr17d9WoUaOskQBZzrV06VIr13LbhpSxlLXJJ/g1Jzs7Wx08eDDWt19sXwXQfFWm5RisfRUAAxACQPm749mzZ2rSpEnWSICkqKhI3bx5k1E6IKRspYxtmSx6/vz5WH8ecdoHoL0v7ghAzIMAmIvYudw7tak+5eTkqJ9++onRWjNSplK2NtSBkSNHqj///DP2nwkCgAAgAAhA4GzcuNGKS74t8+WXX6oXLzhZ0C9ShlKWtnzuJSUl6vnz54n4bBAATQJg8xwABAABCOsboJyTblPdkjXfMqkRvHHp0qVUGdryecvchCQtDY2rAIQ+BwABQAAQgPTU1v6eOi/dpvolp9DJUcjgDikz00/wa44cc719+/bEfUZxWAXQ+v8HthMgAoAAIAD+kfPSTT/kpa18/vnnsdoEJiikjD777DOr5nzIMddJJM4C4JROQQ7uCAACgAC8zYMHD9SYMWOsq2ucLNgxNpzg1zL5+fmp2xRJhZ0AXZ4GGIQMMIgjAElEJodNnTrVuvom2x1v2rSJ0b4VUia2bAUtEQF98OB+oj8zBMCjAMTpMCAEAAGIsgNasmSJlfVO9jh4+PBh4gd+KQPb9nuYPn26amhghUecJgEGJgBuhAABQAAQAPdUVGyxbpmgpG/fvqqmpiaxn5u8dykDmz6zlStX0uAQAO8CoPvWAIM4AgBK/fzzz9bMGm+9V/zq1atjd1BMR8h7lfdswwl+LW/d7Ny5k4bGLQDvAhDEbQAGcQQA/uL06dMqLy/Pynr40UcfJWL3OHmP8l5t+mzee++9RF+pQQB8CEBQ9/4RAAQAAXgb2S9+yJAhVtZFOd3ul18Oxfazkfdmwwl+LTN48ODU0lNAALQIgG4YxBEAeJP6+no1fvx4K+tj586dUxMb43SyoLwXeU/y3my7KvPo0SMaVEwFQMeXc64AIAAIgIE0NjakNt+xtV7G5WTBGzduWHW0c3O++OILjneOsQDoWp3HHAAEAAEwuINasWKFtXWzR48eavfu3daWv7x2eQ82lbmsJikvL6fxxFgA0o27oZwFIDNhWQWAACAAwSP7tMt+7bbW0Xnz5ll1sqC8VnnNtpVzZmam2rNnDw0mIQLg93c8CQD7ACAACED4HD5yWHXv3t3aejp06FArtp2V1yiv1bbyldUjp06doqEgAHoFIN19Br/HRzKIIwDgjHPnzql+/ftZW1dln4Pvv//e2PKV12bjXgwiLHV1dTQQBCAcAdAJgzgCAM65ffu2GjZsmNV1VraiffLksTFlKq9FXpONZfnpp59ySiNzAIKbAxDkSYAIAAIA3gasCRMmWF1vCwoKUhsfRY28BjkVz8YyLJ1fGnj/jACYvwrA6+Dv6goAAoAAIADmIEu8Zs+ebXXdfffdd9XGjRt930b02vnLc8trsK3cZKY/JzImWwDaG5tD2QcAAUAAEAAzkD3pba/DEydOfH007YPQykyeS57TxrLKzs5WBw4coOIjAFrgOGAEAAGwnMrKH61eJiiRyY3Hjx8PvKzkOWydSCknD8pEUEAAdH1BZxkgAoAAxIDffjuqcnJyrK7LcrreqlWrAjlZUB5TjsK18dhlyYgRI9SdO3eo6AiA1i/mHAeMACAAMeHixQuqf//+1tdpOQdB52Anj2Xr2QqSySWT1bNnz6jgCECHY6+XMZmtgBEABCBGyHG18m3R9nrdO6+3OnTI/8mC8hjyWLaWw+LFiyOZJIkAsA9AYIM+AoAAIADB8fTpU1VcXGx93ZbT98rKyjwdaiN/I39r2wl+zZE5Hdu2baMyIwBmCYBuGMQRANCP3PP+6quvYlHH5TQ+N2fay+/aeIJfy0OUfv31VyoxAsAVAIIAgHfWr19v7bfg1oPirl270r5f+Z2cnvZOhhw4cODr8wguUnERADMEgDkACAACYDcyKGZkZMSivs+dO1c9f/78rfco/yY/s/m9jR49Wt2/f48KGyJxmATo54o9xwEjAAhAAqipqVE9e/aMRZ3/62TB//8tWVY/2HiCX8tMmzbNqiOTEYCELgNkHwAEAAGwk6tXr1q7733rZGZmqu3bt6ci/23ze1mxYgUz/REAFcVYHPlxwEADgPCQS8xFRUXIsyFnIcgujkD/FxWRnwUANAAIF7lfPnnyZAbhCJObm+t76+PDhw+7Wh0B9H+eBABoAAiAWcjg4ecceJnDs3DhQgbjCDJo0CB17do1X59/dXV1aq+AXr16GXGsMv1ftDsBer0VEPlxwEADAHfs2LEj1fnLWvdHjx75eiw5VtbW/fFt3ebY72cmGwS1/MzkhMAjR47QMBCA4ASAWwA0AAQgetatW/fGuv7CEYXq3r27vh5z79691k+ksyGzZs1SjY0Nvj//9nYOrKqqooHQ/wUvAAgBDQABCBeZbLuobFGbZTh48GB1+/ZtX49/8uTJ1OVkBupgtjReW77Wdx1YtnxZ2ufZuHEDjYX+L7h9ABABGgACEC7yrXH69Olpd5C7ceOGr+eRCWUffPABg7bGyAZMu3fv8vW5iPx9+eWXjp9zyZIlrM5CAILdCAgBoAEgAMEjE/0mTJjgqCz79e+nLl++7Ov5Hj58qMaOHcvgreNEw969VW1trc+OvDGt/LWVGTNneDpEif4PAeDbPw0AATAAWbPv9mhfuYx/7tw5X8/b0PBCTZs+jUHc526FN2/e9PU5yM6AEydO9PwaPvnkk9TJkBCv/i/ySYAM+jQABCBY5HJ8QUGBpzKVLX/lnr7fy85Lly5lMPc48D5+XO+7DuzZs0fLSYoPHtynQSVQAJwQ+XHAQAOANzl79qzKy8vzVa4iAToGoa1bt6quXbsysDuM3KvX2U9u2LBBy74DfueH0P8hAMgADQABCBg5B7579+6+ylTWiMtGMbo4ePCgysrKYoBPU+YbN24MpE60t/TPTUQo/d4aov9jDgAyQANAAAJCju2V/eH9DkSVlZXaX9uZM2d8X5WIa0SO9u/fH2jdkGWEfl9nTs8c9dtvR2loCIA3AWiJruOAgQYASm3estn3jnzy97JLYFDU1dWpIUOGMOi3SJ8+fVK3bMJg9erVvl9vt27dXi9L3E2DQwC8CQBXAWgACIBeli9frmWzGTkaN2jq6+vVRx99xOD/OsOHD/e9AZNbvl35rZbbFVu2bKHhIQAcB0wDQACiQtrP7NmztQz+sj98eK+7Uc2YMSPRg/+kSZMiW2KnQxgl8jj0fywDdP1kQANAAPwhR/L6WePdMhUV0Xyb++abbxI5+JctLkvdAo2Sr5d9reW9iIAmuU9nFYCDJwMaAAKgD9ltb/To0VrKT07zi5IffvghdRBNEgZ+WQ4pyyJNYfHixVrel4ioCCn9X/L6v04KEAAEIDRu3dI3kc6Ug1/kKFqZYR7nwV/e3+Ejh42rTwsXLtTy/kRIRUzp/xAAoAEgAAFw8eIF1bdvXy3ltn79eqPe2/nz57W9N9PSv3//1GdnKqWlpVrep4ipCCr9HwIANAAEQCM1NTWp3fl0lNmaNWuMfI8yI76wsDBWg39RUZG6d++u0XXL7WmB6Q6UunDhn/R/CADQABAAHezfvy91LKyO8lq1apXR71VOL5S98OMw+P/btH9LHchjAyIBc+fO1fK+RVRFWOn/EACgASAAPpC1+br20pdZ9zYgE4fnzJlj9eAvS+RsW+Isr1fHslKJCOu+ffvo/xAAoAEgAF7QsXNbc5YtW2bd+5dbFbJHgU0Dv2zFHORuimFIwMyZM7WdbxDm/hL0fwgA0ACsR9aIl84v1VZGS5YssbYsdu7c6ft8g7Ail76PHTsWi/r3+eefayuXlStX0v8hAEADQADS0dDwQk2dOlXrpjO2I4OqrgmQQaWgoEBdvXo1VhI6bdo0beUzb968yDc/ov9DAIAGYCxPnjxW48eP11Y2CxYsiE3ZXLp0SQ0YMMDIwX/cuHGxXAMvczF0ymhJSYk1kyLp/xAAoAGExp9//ql1CdxXX30Vu3M27t69q0aOHGnU4C9nGjQ2NsS2fYsEyMCtq7zGjh2bOhCK/g8BABoAAvCaa9euqYEDB2orE1nOFddDtp49e5Y6SCfqeieTE2WSZhKQw5smT/6v2spu6NChoZ+CSP+HAAANwDhOnTqleuf11lYesowr7idspiZJlpZGVudkiVt1dXWi2rlc5dB1+FTz7oiXL1+m/0MAgAaQTAE4fPiwysrK0no5OknHa2/YsCG11CzM+tarVy9VW/t7Itu6SEDxxGJtZZmbm2t9WSIAgAAgAK6pqqrSegre9OnTYznLOh27d+/Wtkuik73ub9y4kej2LqtUdO7UmJmZqQ4cOED/hwAADSAZAiDfXHVucDNt+rREH7t94sQJ9d577wVazyZMmKAeP66nwb9GZvJ//PHH2spWRNjWzZMQAEAAEABHyOV52ZRH5/ufMmVKogf/ZmQipazFD6KOyaRKyvhNnj9/rnXJqqS8fC39HwIANID4CYDMpJZ79Drf++SSyanHhb948OB+6lx6XeUr8wu+++47CrYdZEWG7IGgs07L3hU2zWNBAAABQADSdpSffvqp1vctS+HivP7cK3J5Wse6dbk3vXfvXgo0DU+fPk2t7dd9iqItdRsBAAQAAejwW+moUaO0vufi4mIG/w6Qb5Dr169PDeJeynf48OHq/PnzFKRjCXii9cqL5KOPPkrtjEn/hwAADcBKAfjjjz/UBx98oPX9ygxsmYkN6bl1qy51rLDTVQKDBg1KHb+cxNUUfpHBWrfoiojJ7o/0fwgA0ACsEgD5Bvn+++9rfa8y8zpue6mHNThVVlaqOXPnpL6p5ufnq379+6kPP/wwJVQrVqxIrUdP0h4KQSBb/Oreqll2yJQJnvR/CADQAKwQADm9rkePHlrfp8y4lpnXAKZLwIgRI7TWfdkpU3bMpP9DAIAGYLQA/PTTT9o3ppGZ1jKREMAG5GREuXyvsw3Ijpmycyb9HwIANAAjBWDr1q3at6YdM2ZMaqY1gE08ePBADRs2TGtbkA2D5FYO/R8CADQAowTg25Xfan9vRUVFVsyEBmiL+/fvpU7+030Ko+ykSf+HAAANIPL3LzPG582bp/19yYxqtp4F27l3725qsqXu9lFWVmbEpE0EABCAhDYAmZEvu/Hpfk8yiUomUwHEgT///FP7cljJZ599FvlOmAgAIAAJbAAyQOveAa157bNMogKIE3fu3Ents6C7vcgyzijnyCAAgAAkrAHcvn1b+71NiUyakslTAHFE2o3swaC73cjeAzLfgP4PAQAaQKBcvnxZ9e/fX/v7EKGIqhMDCIu6urrU5j66249cXbhx4wb9HwIANIBgqK2tVbm5udrfg0ySkslSAElAtsgOQqLz8vLU2bNn6f8QAKAB6OXgwYOpzUh0v36ZHCWTpACShHxb79evn/b2lNMzRx09epT+DwEAGoAeduzYkdqERPdrLygoSE2OAkgi169fT53JoLtdvfvuu2rXrl30fwgA0AD8sW7dutTmI7pft0yGkklRAEnm6tWr2g/NksiOnJs2baL/QwCABuAe2WRk4cKFgbzmAQMGpCZDAYBSV65cSd2/D6KtLVu2jP4PAQAagHMaGxvU9OnTA3m9ct/z5s2bVByAFly6dFH17t07kDY3a9as1xsGvaT/QwCABtAxT58+URMmTAhm8H99v1PuewLA21y48M/U0b9BtL2JEycGcpw2AgAIQEwagCzF032WeXPkPue1a9eoMAAdcP78+UCW2jYfrqV7oy0EABCAGDQA+WYus/KDeI1yf1PucwJAemQtf8+ePQNpi4MHD9Y6/wYBAATA8gYgHU5Qk5Dkvqbc3wQA55w5cyYwCejTp0/qSgP9HwIACW8Av/76q+revXswg//r+5lyXxMA3HPq1CnVo0ePQNpmTk6OOn78OAKAAEBSG4BsFiKbhgTxuuQ+pq5vGQBJRbbflt39gmijGRkZau/evQgAAgBJawCbt2xObRYSxGuSS5dh70kOEFd+//2Eys7ODqStSh+wdetWBAABgKQ0ANkcJKjXI5cWT58+TcUA0EhNTU0gZ3E059uV3yIACADEuQHIZiCzZ88ObvB/fany5MmTVAqAADh27FigEjB37lzV1NSEACAAELcGIJuAyGYgQb0OmUgolyoBIDjkpL/MzMzA2vHkksnqxYsXCAACAHFpAA8fPlSjR48O7DXItxK5RAkAwSMrd2QCX1DteezYserRo0cIAAIAtjeAW7fq1JAhQwId/OXSJACEx+Ejh1W3bt0Ca9dDhw51dFonAgAIgKEN4OLFC6pv376BPbdcipRLkgAQPocOHQpUAuTgrkuXLiEACADY1gDkknxQO4k1ryE+cuQIFQAgQn7++efA9vJoXtLb0dweBAAQAMMawP79+wK9RyjfOuQSJABEz759+9Q777wT6JU+EQ0EAAEAwxvA9u3bVdeuXQN7Pvm2ceDAAT54AIP46aefApUA6VO+//57BAABAFMbwOrVqwN9Lulg5OoCAJjH7t27ApV/yZo1axAABABMagCyeUfp/NLAB3+/+4YDQLBUV1cHtsV3c0pLS/+1YRACAAhAhGloeKGmTJkS6HPIt4o9e/bwYQNYQGVlZeASMHXq1FTfgwAAAhBhxo8fH+jjS0ci3yoAwB527NgRuAQE3fcgAIAARBjpQOTbBADYh0zaC1oCEABAAGI6+Mu3CACwl3/84x+qc+fOCAACAAiAs0iHIcsJAcB+tm7dGlsJQAAAAdA8+G/bto0PFiBGbN6yGQFAAAAB6DgVFVv4UAFiyN///ncEAAEABKDtbNq0iQ8UIMZ89913CAACAAjAm9m4cQMfJkACWLduHQKAAAAC8FfWr1/PBwmQIGRLXwQAAYCEC8Da8rV8iAAJZNWqVQgAAgBJFQA5PAgAkss333yDACAAkDQBkIYPALB8+XIEAAGApAjAsmXL+OAA4F8sXboUAUAAIO4CsGTJEj40AHiLsrIyBAABgLgKQNniMj4wAGiXhQsXIgAIAMRNABYsWMCHBQBpKS0tRQAQAIiLAHz11Vd8UADgiFevXql58+YhAAgA2C4Ac+fOTTVoAAA3EjBnzhwEAAEAWwXgiy++YPAHAM8SMGvWLAQAAQDbBGDmzJkM/gDgi6amJjVjxgwEAAEAWwTgs88+SzVcAAAdEiB9CgKAAIDhAjBt2jQGfwDQLgHStyAACAAYKgBTpkxRL1++5EMBAO1I3zJ16lQEAAGAZrp06RKbs7UJIcSWSN+LAECkZGRk0BgJISTkSN+LAECk5OXl0RgJISTkSN+LAECkFI4opDESQkjIGTZsGAIA0TJp0iQaIyGEhBzpexEAiBQ5XpfGSAghyTvaHAFIOFVVVTRGQggJOdL3IgAQKbdu1dEYCSEk5EjfiwBA5BQUFNAgCSEkpEifawIIAKj58+fTKAkhJKRIn4sAgBHU1NTQKAkhJKRIn4sAgBHIsbv5+fk0TEIICTjS15py1DkCACnKy8tpnIQQEnCkrzUFBABS1NfXq+zsbBooIYQEFOljpa9FAMA4vl72NY2UEEICivSxJoEAwL949OiRys3NpaESQojmSN8qfSwCAMZSUVFBYyWEEM2RvtU0EAB4a0XA6NGjabCEEKIp0qeaMvMfAYAOuXbtmsrKyqLhEkKIz0hfKn2qiSAA0CaVlZU0XkII8RnpS00FAYB2KVtcRgMmhBCPkT7UZBAAaJempiZVUlJCQyaEEJeRvlP6UAQArKWxsUEVFxfToAkhxGGKJxan+k7TQQDAkQRwJYAQQpx987dh8EcAwNXtgEVli2jghBDSTqSPNP2yPwIAnpEZrSwRJISQN/f437lzp3X9OQIArpE1rWwWRAghf23yY+o6fwQAArslsGXLFs4OIIQkdm9/6QNtuuSPAIBW5GjLZcuXcZQwISQxl/ulzzPpWF8EACIXgXXr1qn8/Hw6CUJI7CJ9m/RxcRj4EQAIBDnwoqamRs2fP18VFBTQcRBCrI30YdKXSZ9m4mE+CAAYza1bdaqqqkotWbJETZw4UQ0bNkz17t1bZWRkqC5dutDJEEIii/RB0hdJnyR9k/RR0ldJnyV9V9xBAAAAABIIAgAAAIAAAAAAAAIAAAAACAAAAAAgAAAAAIAAAAAAAAIAAAAACAAAAAAgAAAAAIAAAETHy5cvU4FgypWyBUAAABAABAAAEAAAAABAAAAAAAABALNp7/Kuk3+P6m/TvZeO3qPTx+jod1v+u9PH1vm+2ytHP++ro8dzUhZOfqepqcnR623r97yWq5v67/Z5nJaHk88PAAGASCXAy4AU1d96eR9eBkC/v+vlNfh5TzoHpXQCEHXZehGhqF+/39cMgABA5AIQ9d86eR9ev1Wb8rtuy8LP8zsViCDKwM170yGKXl+/7nJxU7cBEAAIRQCcfFOM+m/dvI90v+v08q+fAcHPFQunA4af5/cqADrLy81rcFuubn4niHJBAAABAKMFoK3ONV1nGNXf+hUAN98adX0j9HLJ3s/g5eb5/VwBcHp7wY8AdPS3Xi6pm1A3EABAAMC4qwBO/tuEv0UAEICwBMBvnUMAAAEA4wWg5Qzs9jpaU/7WJgFwyqtXrwIRAD9l4Pd9BSkAOoSXKwCAAAAC4HBmsyl/62fwC3sOgAiOl88hyDkANglAe7/rtFy9ShRzAAABgNjT0TfPdANSVH/rdKAOaqa3m9/1MrM9yFUAzT9rHkB1rQJo/bi6y1bXgGpC3UAAAAEAI68COO28ovhbL8vKgljr7eV9uL1XHvQ+AF6/6fp9X07EQtdnpmt/hiDqBgIACAAYJQBufxb23/rpfHXvBOi2k7dhJ0Cd78tLeeneCVDHToJuZQsBAAQAAEIVNQBAAAAAAQAABAAAEAAAQAAAAAEAAAQAAAAAEAAAAABAAAAAAMBU/i9jugEaugczmAAAAFF0RVh0Q29tbWVudABDb3B5cmlnaHQgSU5DT1JTIEdtYkggKHd3dy5pY29uZXhwZXJpZW5jZS5jb20pIC0gVW5saWNlbnNlZCBwcmV2aWV3IGltYWdltppppgAAADh0RVh0Q29weXJpZ2h0AENvcHlyaWdodCBJTkNPUlMgR21iSCAod3d3Lmljb25leHBlcmllbmNlLmNvbSlOzplOAAAALHRFWHRUaXRsZQBzZXJ2ZXIgbWFpbCBpY29uIGJ5IGljb25leHBlcmllbmNlLmNvbVy4d+AAAABaelRYdENvbW1lbnQAAHicc84vqCzKTM8oUfD0c/YPClZwz03yUNAoLy/Xy0zOz0utKEgtykzNS07VS87P1VTQVQjNy8lMTs0rTk1RKChKLctMLVfIzE1MTwUAuI8aJJy8mOMAAABBelRYdENvcHlyaWdodAAAeJxzzi+oLMpMzyhR8PRz9g8KVnDPTfJQ0CgvL9fLTM7PS60oSC3KTM1LTtVLzs/VBAB9NhBoHN3mjwAAADF6VFh0VGl0bGUAAHicK04tKkstUshNzMxRyEzOz1NIqgTTqRUFqUWZqXnJqXrJ+bkAGVsOfbl5EX8AAAAASUVORK5CYII=;" parent="1" vertex="1">
          <mxGeometry x="1279.4900000000002" y="-50" width="62" height="62" as="geometry" />
        </mxCell>
        <mxCell id="WDt8Z69bVPwjooa2CbTY-24" value="" style="endArrow=classic;html=1;rounded=0;" parent="1" edge="1">
          <mxGeometry width="50" height="50" relative="1" as="geometry">
            <mxPoint x="1134.3899999999999" y="110" as="sourcePoint" />
            <mxPoint x="1270.63" y="10" as="targetPoint" />
          </mxGeometry>
        </mxCell>
        <mxCell id="WDt8Z69bVPwjooa2CbTY-25" value="send mail if the score bigger than threshold" style="rounded=0;whiteSpace=wrap;html=1;" parent="1" vertex="1">
          <mxGeometry x="1160.63" y="30" width="100" height="47.51" as="geometry" />
        </mxCell>
        <mxCell id="WDt8Z69bVPwjooa2CbTY-26" style="edgeStyle=orthogonalEdgeStyle;rounded=0;orthogonalLoop=1;jettySize=auto;html=1;exitX=0;exitY=1;exitDx=0;exitDy=0;entryX=0;entryY=0.75;entryDx=0;entryDy=0;" parent="1" source="WDt8Z69bVPwjooa2CbTY-25" target="WDt8Z69bVPwjooa2CbTY-25" edge="1">
          <mxGeometry relative="1" as="geometry" />
        </mxCell>
        <mxCell id="naI5EuYvDpqj7i25Tckg-2" value="" style="endArrow=classic;html=1;rounded=0;entryX=0.348;entryY=-0.028;entryDx=0;entryDy=0;entryPerimeter=0;" edge="1" parent="1">
          <mxGeometry width="50" height="50" relative="1" as="geometry">
            <mxPoint x="921.05" y="350" as="sourcePoint" />
            <mxPoint x="920.6299999999999" y="457.6199999999999" as="targetPoint" />
          </mxGeometry>
        </mxCell>
        <mxCell id="naI5EuYvDpqj7i25Tckg-3" value="" style="shape=image;verticalLabelPosition=bottom;labelBackgroundColor=default;verticalAlign=top;aspect=fixed;imageAspect=0;image=data:image/png,iVBORw0KGgoAAAANSUhEUgAAAOEAAADhCAMAAAAJbSJIAAAAkFBMVEX///8/hiQrfgA8hSAufwA5gxs3ghcnfAAzgRA1ghQxgAoofQA9hSA4gxj4+/fm7uO2za/z9/LK28WJsH3i69/W49LR4MyYuo71+fTs8uqkwZvc59lblUirxqPD1r12pWhlm1TF18BIiy9PjziStodVkkB5pmtonFeyy6pel0t/qnKdvZO6z7Rmm1V2pGhwoWCs/TikAAAQ6klEQVR4nO1da7eqOAw9lEJ5Koqo+FbA9z38/383oKaggrZatLPW2V9m7p0BCW2T7HQ3/Pz84Q9/+MMf/h9oDTth2G73Tmi322HYaX37md5Fa9gOusdR7KfJyrVwBpTDtk//QNmfLUNJFnM/PmyX/fb/yd523xutdyszsyUzwnQ11VFq4DiapptGZr+NnGTjj7yg/e3Hf4RO/xjPFWJjy3TrraqFo+mZrTYxF/62G37bmBt0+tP9REHIMjV+y+6QWYptZxd7Yymmbqc7WjsEG6+M2mM7TQuRyP+umeEsjjA2NLGmlaHqlu3uDt1vWNn29gqxdLU56wozTUwmg49a2er6CrJcrmnpqKqqAVQ1+yOvlXgx/YyjHR5/Law/t85RNdPInCOyCbFNdRUlu8UmTX9/0/TfbpJEKxWT7L/kEcUwH0SUAppBkkG/YfM6241tPV53qmtmPh+50W4ej6bHbtALa+dXK+xlWcF0FM8nWfxE2Hjmi1UTWX7QnH2zFD8yT828PCHRfuAtx/w5WSsMltv4d0XIk6Cj26tBI9N17CNcZ57jZra5O3/bF/DTYeDFG8V+4KMdkySeaMfjJbZe/XOagdFqP+oLzkLC7ih1Ua2ZqmXGAgcyPGCryvU5ukXcdNQfivupmx/OzFSJ5VYaaZJU0IrsxNioHDuk+F5PzG88QhZ5VVQ5lpq9E+BaWwNkViwEjNPtB6wDjKcpxua9+9HI4t1x3Fp34+eYthJ3hTw4F/qxYt+/bM1O31mPQYLvzCOrQYMB6cnzxO69w3Ptw8s39MmNf9GQEo8FPvELCHz3LmhZ0WsLpre6nqCqQeZfmJz3WM6Jcb0kVTR94T4eubqLhlbTxqICL4ajFbqeXijlvklMrtfzQorhKzCb2FeT1Yw6fDfwUdk+kn559VWhP7HL46gpXFmVX/Khqr2R0L4c3QSVVpK24lhFI7vsqCSbn2UctZI3dBPm64JiDWr4FS/1QcSlqWr5rFcVFQZrIlvh8g6BUiQ6hDFNPdCRt5lfyjeRWtRlsM3TFr2ASD5DAXvqF20mn+GBhchr+tFEwYdZpzEF/vQSSc3/xRQ9IwHPYbAUN+B9uI0/lziMIUGxGUJ36zKpzUHzDyYOySX0W7Pn/28HLIybfy5x8C+1HIPBOfYuA66umn8ucZhr7DOPTmkkcbZ2izbEC5aZF4KFjsvJR76ICHypxRLhaMDXImko7xNsaOKGWSYefR+KZkpKm64RRkVmarMU3tYFd3bsUePP9zaO5cqUxTLtBuWiJE4kH8b2osRlGQMAzUvP19hriQlU6KOrao22YLmqf1MFdon/wfo9D0L/tj6sM+XSbaLcQLdTCWNjML/fUWFJaYrE9Gr00Wok1WQNR5FdsR2Fl0xXR5V7hYa98yRJAYbHBTEqtRyIzS9uavdd0cb7+kh2vA2qVRMQthzFh+Wr3b0nzSLR4WtbT1nSPErIvXmFrsFiu830woG19Q7dzwXVRG76ib3fW4y3c8eumJyOnU4uJqo7tlvNLq7G3f8sowob86G0cTrtf2xZdoJpiuzKnW4VRV3qObInZgLwJzXK/jCLUPWk1wyEI99rfMqOPT+yqvfx8x2jJCf14P0Nxr3SDgRE+/TH7obcby5f3oGeKyTX02UTCp5hezb9jQiqlQc6BpmfXnAbEjfryHhvYIjkMg3b8f2+a8lMzcC2ufodHEVpanpdL04VIxcN1ev7XKQcLr9HszDEOqOgrFOKLt15hQ+7eqGaaWGCVv/mg+kx6L2wRFvtXnc7XacrO9dRPxa4aRjtiwp+UeFlfcX7S1nnqnDV8ja4RrtzZahmGhZC2TNGv36cWbtcdoP2cNgatnKc7pRjmP1VOO53l0tv4Ptp5BoYZZYZ7nMdtYuN9VVJjbIhlVUKBlfcZnmd454gk1UY6mj6WYd/FmCehftqLl7M/zL/u/wvcfYudP3BbLyGls3d/fLGEGC0J9fIhONl1Ksy9eAwsTGzlUKRRWK8GFXkZRAstDmrhbBytU3lf+4s4yjX1AmWrj80LotNaHfoV89CWDvsRezw4n0fjPqwP00VgoWcPngMJ3PVJJpPg9o1FoIrtbasFrbgpViPV264PKQKzgJWM2p9NT+QgJX16EnyRCu8mF3HBxObMETyMPD81CW5hFnUkYtcIY6zVOL34I0Zwg64DbZC2xnAnzheyrh7iHcrw0aWpTN4/Co4mmtaWaRxo3Qw7bJXwEawW2YzX/ITX8IFcxYEGIbB0fPXqWJnkSAbVsM0dU3Lzx7c2ZwfT1BPB7sugn4r+d0PvNm4Xvheg/2F7TkcOy3An97ZYWuPg+V2dDj46WKS5IcPzDwK5qfz8CmwK1GSTHapfxiNtt2AZTbWAWYc2wbwGd2CPwlDlsZ0AFk+I1CIrlzmB1uh7Yze83AhEYAKGczBInvfcBFjVeCrgOFQMMP+LwWksvjrhafnoNzJ5imt7C4BkbE691VsIVhYPN6qkj9JCsqdHJ6rIIiyVcm/C9D/sBbaznjEn2QDpJh8zxpcktka/iQTWpD2G1y7uSBXcOQPiFRZwecz6ItBTT2YMARUHcNXuuXhT98F5U6EL7VN+fnTl3B4UWkIQYZJgcOMvh85TuQL3VCG0M0XLIpEQaRCcZyQvECv6nYicLdjAdxpzXcdLbdxXvcA22JbWiUcNOAJYJKanCfYxPOn45UAQpiJBQ3iXU9woSil8K3CgwjaYx0Dd+IMFgVxFsWf5jdbHjwlh0fo0n0n3rgGxQ9B/Cm0lRsIirRQUlIw75UgVxDEn7bWrYWCaAuUBR2F98qpWP5U6DtWl38RRFteKbSdMRPLn9ZAqcew/epEQoIipJf8wnvYDBDkEaBqq05KQXHHptF6hGKLhTv8wIYOTyH5AQ50m7bsT1HEW1S/e0xaaONPBeHlcGwGPEBw50vP9uLVe6H/tULbGTDBOTZ0HkGp2axxLOvwRkWfcifMX0Rfi+VPHqq2MIOB/ZfTCpj9rywmyp8EZZC7mv42OXQyfzGxAO6k/eO/FkQqvDl7HVqlMwOKdrtr7Nr/XmKNyQu7MgDKn5gFDs8wJxCdyXpNbqU5Glpt+dcSzP1XEhMgAw77GfBn6C8wtiyM8745vfVdKxbVMgecC5JK8Lh2ZQDgh7mK5c+eqOt5XVDL+fftZkyy58p0imNor5AxCBfN7T91Bvf9fVw74aCyMxoOX3nIVCx/qsRwZN312FKxe2B9XsqdFO0Fly+YP9XBu23EkvsNsmZ7rX4RgjB/Ji+YP9VjlpA7yZFLJiyTtXysQCU+py+GOf6B/acgvW//pFroec+566MhJud0631y/6nnk/umcKa9eZwGtG4rB2TOM4xwqNsRGS4e/NzBxffnO5Dy6DRSxREtkyeNhpdK3n56RngV5wIcA9UfK7s9Zpf//4SD7Cdi+RMLuou7bO40kIPqgO7d1bcyWAkzG4O8/aP7T+N9RZdGx7QXVU6kEHiXx579+PJBMH9iRDgyK84+aNi9bz5LBd6Lf2X66RBGn3oUzJ/YcdxVdUs17Wh6PQFpoe3wszXLVxC2+o94/sSOPHpUnCqz8Lxcn4NlmM+y4brsWAlTGS8Uz5840JpWnhLVsE3PkoTX8ueZUfJSLG1cflpUbPSlxu/9tPKoqIsc/2RS0ZXm7O07myJ6qCbLL0C4QF87Hds+rKoG0tGREQe0Ll9E7FExU00Wbewn+NNT9FNkVFUiTbRaXEagtCvTLfIiwvDUsK/zUolAHMKDgqoOXDlgeHnnoUf5psvgIEGuwKenagL9dXU36jP0cqLWpv3+7efuo/s5/vQUw+2u5oR6htV6W0zJonbzPBcDuQJbt4nGkXcZqDnNmh/Z3cXTZdDudMbgIBm0C1TnwOR5P4HxwLArml6fkLf1z89t0KIIy2kRCC8f408MCOJV3UjegEWdsfs8f2JBEJssBz1ZtAtQypJPvxcckttW3LewWARrIPf+MH9iQ2f30ERNYck1Z1/jTyyghTanwvcYK6aqMpV7f4E/PQclBjsFYUMvHwk0bcZqTQf0e5Nmn/Ul0MOxWdoc9rd+qpDTkUCMiMH8mZYWzAO10Wd9DcFt64fM6N44WC65vk5Hy22SdBcqg4oU3jp+RvnTF7vu1AEc/XtLaCAHf6oEFDvdt2TMICn8Pn+6Bwi83wtlfYn40y24GnrWQjL+VAYlPgw08BHgNpqg5xKHQuD9ns4A8oQXZGMNgwq8zfcejYYLufjTT7EJ/648VF7+BIXAdyW+8KbEnn8SARApvNt3nPIn6Tq0A3d6VyoCHks6/kQF3i/In68AcgXp+BPdd3pB/nyNy32k+1JCn9Z9341jIFHlPIPaOIA7vX+WAI6CyMafQGTwvp4J7sTYofdjAO70PifwJOVPE0HBoqiGyMafaI+2t7k5SMck409Dyp3e35+G/hHc5/saRdGF7n2NNs2OpPrYxZLO0vfvJSd/otxJgNaH8iepWuvHl6cS0W9tKyV/+iek0HbGUsovXIF34O57WAFabhPXP+J9tECD+mah7YTOJalh/LbgZ0A7eBMRB3po5VXAvUSBCrxdETVAyABl4k+UOwmZWHsJ+dNAUKHtDCr3lmj/CVirGAd/lJA/0WAhRCQiI3+iR0eFFKpD+fhTSL9PISZZFlbzEQbKnQQJ7qDcJg9/ogJvQTVO4E/y6Pfot34EHRykcm9p+BMwOlHOD+QK8vAnECmIOsDblY4/raARmaAibhv0e7LwJ/rtO6ajPwwYwnFZWfhT0cFblHeHrTpZ2rV2xXZ4+ink3rLwJ3B9vA096wHOWZb+5RC+xH3YgMq9JeFP8BFucWxnJhl/gmAhotB2hmz8qSR/FoSOXPo9KlIQUmg7AeTekvCnooO3uHtCuY3pq9eNQ2yh7Yy5VPwJXLvIr+AcpOJPe6GFtjPk4k/AnUQ+TV8q/kSbOAtUhLZl2n9qAbN4qYNZHS7VOym+/0QF3kJ2ZQDAn2Q4LgtLRuzrhsVNJBC0U0XbQuRdwUGzfjS5QVDZpchwWGo4bn/7vGyXNhMS2ymvaBpvf5dfDIqOy4I/ELOmPYoM53s6zJlbdMkS9ekBQFg0fnHs3XcOX3QTVDrqK+rzERReqQuTRibC2DUrWtvrHpm2+H6Vg3LPcbWqt1iD6O6N6+4tWKgjvSC+blKo26vBZ2pvQezeduBpyN9Nb/o0OCZy/G6zOcBw6SvorqUyaaokNlZuG/45OsaLus9lv/97owXC+l3DBMNp0NPFFZ23NAOjJJ6J7accLg8bCxlVDdtIsxG5t7jviJvPGxMTJT144/cLOcPAG2xOHzWv+J3Mvl3ji7+fkuoO+U7+oXBipLHXb79i6HC8nPoLiyCr9ovtLll8JBSPffSg8VZmJ7at1ST1R9v+uP10iYbjvjeK57sVtvP2HbX3VVSD7D+2cdLaJqSuXdNlQFVNv3xvGzvRLt3v/Tg+jE44DOLY9/19uotUTAjClmFqT77L7pgkmX5262s8UCodQeXbVzVX103TNE7I/sXUdd3V1OedkC6jh1Y1XWgbNnK0sK17Zy4Wjm6Ryegb5p0xnPkrZOmMY8ELVbfQaj/7+r5sOPMTItrM3DgyER1l38HY8xMtd4Zv2+m4Brbdie9JsuFcRivsTv0JysYz8/rclp6cb3axsj8sexIUvB6gMz5O/U2iIvsUB3St3lrH0TTdzIMKUpONP52Nv77meNBq95feaODPd5Fj4Qwoh23bp3+i/IMsTrRY+4ftMmi35B41FrQ6Ydhu905ot9thGEqxF/mHP/zhD39gw39nu/8+vX+8wAAAAABJRU5ErkJggg==;" vertex="1" parent="1">
          <mxGeometry x="1260.63" y="190" width="75" height="75" as="geometry" />
        </mxCell>
        <mxCell id="naI5EuYvDpqj7i25Tckg-5" value="" style="endArrow=classic;html=1;rounded=0;" edge="1" parent="1">
          <mxGeometry width="50" height="50" relative="1" as="geometry">
            <mxPoint x="1130" y="140" as="sourcePoint" />
            <mxPoint x="1230" y="210" as="targetPoint" />
            <Array as="points">
              <mxPoint x="1220" y="200" />
            </Array>
          </mxGeometry>
        </mxCell>
        <mxCell id="naI5EuYvDpqj7i25Tckg-6" value="AWS S3 Source folder with Validation and Predict image moves to Complete folder" style="rounded=0;whiteSpace=wrap;html=1;" vertex="1" parent="1">
          <mxGeometry x="1210" y="270" width="152.35" height="60" as="geometry" />
        </mxCell>
      </root>
    </mxGraphModel>
  </diagram>
</mxfile>
